<?xml version="1.0" encoding="UTF-8"?>
<svg version="1.1" viewBox="0 0 2000 2000" width="280" height="280" xmlns="http://www.w3.org/2000/svg">
<path transform="translate(991,48)" d="m0 0h22l15 4 12 6 13 10 10 9 22 22 14 16 5-1 16-10 20-13 16-9 19-8 17-4 7-1h11l13 3 11 6 10 9 11 11 14 19 11 19 11 20 2 5 7-1 38-14 22-7 17-3h22l14 3 12 6 10 9 10 15 8 15 11 28 11 35 18-2 23-3h42l19 3 14 5 9 7 9 11 7 15 4 13 6 29 4 32 2 15 32 2 24 3 25 6 12 5 13 7 10 10 6 10 4 10 3 18v34l-3 34-1 8v9l26 9 29 11 19 9 12 8 10 9 7 10 4 10 1 4v26l-3 19-6 25-14 39 4 3 22 13 28 19 13 11 10 10 9 13 4 8 2 7v20l-3 13-8 18-9 17-15 23-11 18v3l8 7 29 29 9 11 9 13 6 13 2 9v28l-4 17-8 15-11 13-42 42 2 5 24 38 8 15 9 21 4 14 1 7v9l-2 9-6 11-10 13-12 12-13 10-21 14-17 10-11 8 5 15 9 25 6 24 3 18v24l-4 16-4 8-5 6-12 9-23 12-23 9-38 13h-2l1 3 4 45v43l-3 16-6 12-9 10-10 9-14 7-15 4-25 4-45 5-2 10-4 34-6 29-6 18-6 11-8 10-11 8-12 5-16 3-18 1-27-2-37-4-5-1-3 11-12 35-11 24-8 14-8 10-8 8-10 6-15 3h-18l-26-4-22-6-16-6-19-8h-3l-8 13-10 17-11 17-8 11-11 13-10 9-13 8-13 4h-18l-17-4-19-9-19-12-21-14-14-9-5 1-17 17-7 8-20 20-13 10-14 8-7 2-10 1h-16l-15-2-12-5-13-9-10-9-8-7-10-10-7-8-12-13-4-4-5 1-28 20-15 9-19 10-16 6-15 3-14-1-13-4-11-7-13-12-11-14-12-17-8-13-13-23-2-4-10 3-28 12-18 6-20 4-8 1h-16l-13-2-11-4-9-6-5-4-10-13-12-22-8-20-12-35-2-4-39 4-14 1h-27l-20-3-13-5-11-8-7-9-8-15-6-18-5-26-4-36v-9l-17-1-45-7-18-4-16-6-10-6-10-9-7-10-6-13-3-15v-40l3-27 3-16 1-3-10-3-43-15-16-8-14-8-11-9-9-10-6-13-2-9-1-12 1-16 4-20 8-26 8-22 3-7-1-4-20-12-17-11-16-12-14-12-11-13-8-14-3-8-1-6v-9l3-15 5-15 8-17 12-20 12-19 6-9-2-5-12-12-8-7-8-8-7-8-11-13-10-16-6-13-3-11v-16l3-14 8-16 10-14 15-16 9-9 8-7 13-13 2-1-1-5-14-22-15-25-8-16-7-19-2-12v-10l4-16 5-10 12-13 13-11 27-18 26-16 4-4-14-40-6-22-3-15-1-8v-19l3-12 7-12 13-13 14-9 20-9 39-14 17-6-4-22-3-24-1-14v-18l2-16 5-16 5-10 10-11 13-8 16-6 25-6 26-3 30-2v-9l5-45 4-21 6-16 6-12 9-10 8-7 12-5 15-3 23-2h15l31 3 21 3 12-36 8-21 10-21 12-17 7-7 9-6 11-4 5-1h25l16 3 23 7 41 16 4-5 14-24 16-24 11-14 11-11 13-8 13-4 10-1 19 3 13 4 18 8 23 14 26 17 5 1 6-5 7-8 31-31 14-11 10-6 10-4zm5 13-13 4-16 10-10 8-15 14-23 23-3 4 2 4 15 10 25 15 16 8 14 5 5 1h11l16-4 21-10 24-14 22-13 2-3-8-8-7-8-16-16-8-7-17-13-16-8-9-2zm200 22-14 3-21 9-19 11-17 11-14 9 2 4 9 9 3 4h2l2 4 7 7 8 7 12 11 15 10 12 5 14 2 21-3 25-6 33-11 5-3-8-16-14-22-11-15-9-11-10-10-11-6-12-3zm-405 1-10 4-11 8-9 9-12 16-18 27-8 13-1 5 5 3 16 6 25 7 24 5h24l15-5 12-8 13-11 13-12 17-17 6-8-23-15-15-9-15-8-24-8-10-2zm306 51-11 7-22 15-17 10-17 8-13 4-11 2h-10l-15-3-16-6-20-11-22-15-15-10-5 1-15 15-7 8-19 19-8 7-13 10-13 6-10 2h-20l-19-3-24-7-40-16-6 8-12 21-14 22-9 11-12 13-12 9-10 5-10 3-7 1h-25l-31-3-21-3h-7l-5 15-9 29-9 21-8 14-9 11-10 9-8 5-15 5-26 5-40 5-15 2-5 49-5 25-5 15-7 14-8 10-8 7-14 8-19 8-25 9-24 8 2 19 2 13 1 12v38l-3 15-7 16-8 10-8 9-13 10-13 8-26 15-12 7 1 8 14 38 7 25 2 12v19l-3 12-8 16-6 9-12 14-14 15-24 24 8 14 7 10 8 13 7 12 8 17 5 15 2 10v15l-4 15-8 18-8 15-10 16-16 24 5 6 8 7 27 27 9 11 7 10 6 10 5 13 1 4v22l-5 25-7 24-11 28-1 3 20 11 18 12 16 12 13 12 9 10 8 13 5 16v39l-3 27-3 19v5l25 8 21 7 23 10 15 9 12 11 7 10 6 13 5 17 4 24 3 40 2 3 17 1 38 5 20 4 13 5 12 7 12 11 9 13 8 15 10 28 10 32 1 2 14-1 20-3 10-1h42l17 3 12 5 11 8 11 11 10 13 13 21 15 27 4 1 40-15 23-6 20-3h12l15 3 9 4 12 7 16 13 20 20 7 8 9 11 4 3 18-11 15-10 21-13 13-6 12-4 10-2h19l17 4 16 7 14 8 37 24 4 1 40-40 11-9 10-7 11-6 13-4 6-1h17l18 3 24 7 37 12 4 1 8-13 10-18 12-17 13-16 10-10 13-8 11-4 14-2h34l35 4 15 1 12-36 7-20 8-16 7-11 9-11 10-8 14-7 19-5 31-4 26-2 9-2 3-19 4-33 4-22 6-17 6-11 9-10 12-9 17-9 24-9 25-8 12-4-1-13-4-34v-38l3-15 5-12 7-10 11-12 13-11 15-10 19-11 16-9 2-3-15-40-6-21-3-21v-17l2-12 5-12 9-13 11-13 12-13 16-16 8-7 3-4-12-19-9-14-13-24-7-16-3-11-1-9v-9l3-16 5-14 12-22 16-25 8-13 1-3-5-6-8-7-25-25-13-17-9-15-4-11-1-5v-31l4-20 12-36 5-13-1-4-15-10-24-15-16-11-13-12-8-10-7-15-3-12-2-19v-16l3-32 3-22-8-3-26-9-26-11-14-8-17-12-8-9-7-12-6-18-4-20-4-31-2-19-1-1-29-3-35-5-15-4-13-5-10-7-9-8-7-10-12-23-11-29-9-26-4-2-26 4-24 2h-17l-20-2-15-4-12-6-9-7-8-8-11-15-14-22-13-23-3-4-6 1-16 8-17 7-21 6-20 3h-18l-15-3-16-8-10-8-20-18-9-9-7-8-12-13-2-2zm-494 15-10 3-8 6-8 9-11 19-9 19-9 24-5 16v4l12 2 24 2 27 1 18-1 12-3 10-6 10-9 9-10 13-18 11-16 11-17-1-4-25-9-40-10-13-2zm780-1-16 2-25 7-25 9-16 7 7 12 23 34 8 10 9 10 10 8 10 5 10 2h34l45-4 4-1-2-9-10-28-13-29-6-11-7-9-5-5-5-4-9-4-15-2zm142 106-29 3-14 2-2 1 2 11 7 20 10 25 10 19 10 11 14 10 16 6 22 4 37 4h7v-11l-4-35-7-31-6-16-6-9-9-7-9-4-19-3zm-1076 1-17 2-11 4-9 7-6 8-6 12-5 17-7 44-2 19 13-1 37-5 24-5 14-6 11-8 9-9 10-19 11-29 6-19 1-5-6-2-22-3-25-2zm-84 130-45 6-25 5-14 5-9 6-7 7-5 10-3 13v43l2 29 2 13 3 1 22-8 26-11 17-8 11-7 6-5v-2h2l7-10 5-11 4-19 5-41 2-16zm1266 1v9l5 39 5 25 4 12 7 9 11 10 13 8 16 8 24 9 22 7h4l3-29 1-15v-36l-2-15-4-10-6-7-10-6-14-6-18-5-23-4-28-3zm-1386 155-16 6-27 11-22 10-12 8-10 9-7 13-1 5v14l2 14 9 36 7 23 4 8 5-2 15-9 16-11 14-10 11-9 10-10 7-11 3-8 2-13v-26l-3-38-2-8-1-2zm1507 0-2 7-3 33v41l3 13 7 13 11 12 10 9 18 13 20 12 12 6 2-3 10-26 8-28 3-16 1-16-1-11-5-12-7-9-11-8-19-10-19-8-19-7-16-5zm-1589 177-11 7-38 28-12 11-5 5-6 7-6 12-1 4v12l4 15 8 19 10 19 9 16 10 16 3 2 8-7 12-12v-2h2l7-8 12-14 12-15 7-14 1-4v-22l-4-18-11-36-7-19zm1672 2-5 10-11 33-5 23-1 7v21l4 12 10 16 13 16 11 12 12 12 11 9 3-3 15-23 14-24 8-17 4-15v-16l-4-11-8-11-9-10-14-12-17-12-16-10-13-7zm-1711 192-21 21-7 8-9 10-9 11-7 9-8 16-1 5v14l3 11 8 14 10 13 12 14 7 7 7 8 13 13 3 1 12-18 15-25 8-16 5-14 1-5v-17l-4-16-8-19-14-27-12-18zm1753 1-8 10-8 13-13 22-8 15-5 17v19l3 13 11 25 13 23 11 17 3 2 12-11 7-8 9-9 7-8 11-12 11-15 6-13 1-5v-14l-4-13-9-15-9-12-11-13-7-8-2-3h-2l-1-3-16-14zm-1750 196-6 7-8 13-10 17-11 23-6 16-2 7v15l4 10 7 11 11 11 14 11 18 13 15 9 11 6h3l10-26 9-31 2-11v-25l-5-13-9-15-13-16-12-13-16-16-4-3zm1746 1-12 11-14 14-7 8-13 14-9 13-5 11-2 11 2 18 7 30 9 30 5 12 14-7 32-22 12-9 12-11 8-10 5-11 1-3v-14l-5-17-10-22-10-19-11-18-7-9zm-1700 191-8 20-8 28-5 24v27l4 10 9 10 7 6 17 10 25 11 27 10 8 1 4-34 1-12v-34l-3-13-7-13-11-12-14-11-13-10-18-12-11-6zm1654 1-14 8-21 14-18 13-15 14-8 10-5 13-1 11v24l3 36 2 15 8-1 20-7 22-9 17-8 18-11 7-6 7-10 3-10v-17l-3-18-10-38-6-18-3-5zm-1567 176-2 15-2 36v25l2 17 6 12 8 8 12 7 20 6 29 5 30 3h7l-2-23-4-28-5-23-5-12-6-9-10-8-17-9-37-15-22-7zm1476 0-22 8-32 13-15 8-10 8-7 8-6 10-5 14-4 24-4 36v7h10l44-5 21-5 13-5 10-6 5-4 6-9 4-10 2-20-1-28-3-37-2-7zm-1350 153 1 14 6 38 6 25 5 13 6 9 9 8 12 5 13 2h33l24-2 21-3-1-7-9-27-14-33-6-11-6-8-11-8-11-5-17-4-33-4zm1225 1-39 3-25 4-15 5-11 7-10 10-8 13-11 25-10 26-4 12v4l39 4 15 1h24l14-2 11-4 8-6 6-7 7-14 5-19 4-22 4-40zm-1019 114-25 2-25 3-1 3 7 21 11 28 8 16 9 14 7 8 8 5 11 3h20l18-3 25-7 33-11 2-1-1-4-9-15-18-27-10-14-7-8-11-7-7-3-21-3zm794 0-16 2-11 4-8 6-5 5-9 10-10 14-12 18-9 15-4 7v2l28 10 30 8 15 3 16 1 10-2 14-7 11-11 8-13 8-16 11-30 6-18-1-4-31-3-16-1zm-594 65-22 5-26 8-24 9 1 5 10 15 14 22 13 16 9 10 8 7 12 7 7 2h13l15-4 11-5 24-12 25-16 9-6-2-4-12-13-15-15-11-9-12-10-14-8-9-3-5-1zm396 2-12 3-10 5-11 8-14 12-13 13-8 7-8 8-2 1 2 4 16 12 19 12 24 12 18 6 5 1h14l11-4 13-10 9-9 13-17 10-14 11-18 6-10-1-2-30-9-26-7-21-4zm-195 21-14 3-16 7-21 12-23 15-7 4v3h2l2 4 8 8 8 7 12 12 8 7 15 12 14 8 6 2 13 1 13-2 12-5 11-7 10-8 12-11 20-20 7-6v-2l3-1v-3l-24-16-18-10-16-8-16-5-7-1z" fill="#2EEEDE"/>
<path transform="translate(993,927)" d="m0 0h27l20 3 21 6 25 12 12 8 12 9 10 9 10 10 9 12 8 13 9 19 5 21 3 24 1 16v68l-1 82-3 24-4 20-5 16-11 21-9 12-9 10-10 9-16 12-18 11-19 9-17 5-15 4v87l-1 27 6-1h19l17 1 14 3 10 4 12 8 10 9 10 14 6 13 2 7 1 16-2 14-5 14-7 13-9 10-10 8-10 5-15 3h-135l-15-2-12-4-11-6-9-8-8-10-6-10-4-15-1-6v-17l5-19 7-12 8-10 7-7 14-8 11-4 9-2 11-1 30-1 1-114-10-3-25-7-23-11-12-8-10-8-12-11-9-10-8-11-8-14-7-15-7-20-4-16-2-18-1-61v-44l1-43 4-33 5-22 9-21 9-16 10-13 9-10 13-13 15-11 17-10 15-6 18-5 18-3zm-13 48-2 1v16l1 30v45l-3 6-7 5-13 3h-8l-10-3-5-5-3-7-1-10 1-20v-20l-3-8-5 1-11 11-8 10-5 13-5 29-1 14v97l1 35 2 23 4 20 5 16 8 15 8 11 10 10 17 12 19 10 13 4 11 2 19 1 21-3 14-5 12-6 11-8 11-9 7-8 7-7 7-10 7-14 5-17 2-18v-156l-1-20-3-14-6-12-12-16-6-7-5-2-3 5-1 11 1 21v20l-6 8-6 4-12 3-11-1-9-4-4-4-1-3v-59l1-27-2-7-9-2zm-32 580-12 2-8 4-5 7-2 6v9l5 9 8 5 3 1h126l9-3 8-6 3-6 1-8-3-8-7-8-4-3-11-1z" fill="#FFB63F"/>
<path transform="translate(1616,365)" d="m0 0 6 2 2 2 6 2 2 1 32 2 24 3 25 6 12 5 13 7 10 10 6 10 4 10 3 18v34l-3 34-1 8v9l26 9 29 11 19 9 12 8 10 9 7 10 4 10 1 4v26l-3 19-6 25-14 39 4 3 22 13 28 19 13 11 10 10 9 13 4 8 2 7v20l-3 13-8 18-9 17-15 23-11 18v3l8 7 29 29 9 11 9 13 6 13 2 9v28l-4 17-8 15-11 13-42 42 2 5 24 38 8 15 9 21 4 14 1 7v9l-2 9-6 11-10 13-12 12-13 10-21 14-17 10-11 8 5 15 9 25 6 24 3 18v24l-4 16-4 8-5 6-12 9-23 12-23 9-38 13h-2l1 3 4 45v43l-3 16-6 12-9 10-10 9-14 7-15 4-25 4-45 5-2 10-4 34-6 29-6 18-6 11-8 10-11 8-12 5-16 3-18 1-27-2-37-4-5-1-3 11-12 35-11 24-8 14-8 10-8 8-10 6-15 3h-18l-26-4-22-6-16-6-19-8h-3l-8 13-10 17-11 17-8 11-11 13-10 9-13 8-13 4h-18l-17-4-19-9-19-12-21-14-14-9-5 1-17 17-7 8-20 20-13 10-14 8-7 2-10 1h-16l-15-2-12-5-13-9-10-9-8-7-10-10-7-8-12-13-4-4-5 1-28 20-15 9-19 10-16 6-15 3-14-1-13-4-11-7-1-2 4 1 10 4 11 3 19-2 13-4-1-2 4-1v-3l4-2 5-1 10-4h2v-2l4-2h3v-2l4-1 1-3 2 1-1-7 11-7 3 1-2 4h5v-3l3-1 4-2 1-2 6-2 11 1 9 2 1 1v-4h-2l-1-9 2-4 4-1v-2l5-3 4-5v-6l19-12 15-9 11-5 12-4 10-2h19l17 4 16 7 14 8 37 24 4 1 40-40 11-9 10-7 11-6 13-4 6-1h17l18 3 24 7 37 12 4 1 10-18 11-18 9-12 11-14 12-12 13-8 11-4 14-2h34l35 4 15 2 1-7 15-44 8-18 9-14 10-12 10-8 14-7 19-5 31-4 26-2 9-1 1-11 5-41 4-22 6-17 6-11 9-10 11-9 19-10 24-9 25-8 12-3-5-38-1-9v-38l3-15 5-12 7-10 11-12 10-9 17-12 21-12 16-9 1-2-15-40-6-21-3-21v-17l2-12 5-12 9-13 11-13 12-13 17-17 8-7 2-3-12-19-9-14-13-24-7-16-3-11-1-9v-9l3-16 5-14 12-22 16-25 8-13 1-3-4-5-8-7-26-26-13-17-9-15-4-11-1-5v-31l4-20 12-36 5-13-1-4-41-26-14-10-12-11-9-11-7-15-3-12-2-19v-16l3-32 3-22-33-11-26-11-14-8-17-12-9-10-7-12-6-18-4-20-4-31-2-19-29-3-15-2v-1l26 1 13 2-5-3-12-3-9-1-11-1-4-2 2-1 13 1 1-1h6l1-3 5-1 17 2v-5zm15 22v9l5 39 5 25 4 12 7 9 11 10 13 8 16 8 24 9 22 7h4l3-29 1-15v-36l-2-15-4-10-6-7-10-6-14-6-18-5-23-4-28-3zm121 155-2 7-3 33v41l3 13 7 13 11 12 10 9 18 13 20 12 12 6 2-3 10-26 8-28 3-16 1-16-1-11-5-12-7-9-11-8-19-10-19-8-19-7-16-5zm83 179-5 10-11 33-5 23-1 7v21l4 12 10 16 13 16 11 12 12 12 11 9 3-3 15-23 14-24 8-17 4-15v-16l-4-11-8-11-9-10-14-12-17-12-16-10-13-7zm42 193-8 10-8 13-13 22-8 15-5 17v19l3 13 11 25 13 23 11 17 3 2 12-11 7-8 9-9 7-8 11-12 11-15 6-13 1-5v-14l-4-13-9-15-9-12-11-13-7-8-2-3h-2l-1-3-16-14zm-4 197-12 11-14 14-7 8-13 14-9 13-5 11-2 11 2 18 7 30 9 30 5 12 14-7 32-22 12-9 12-11 8-10 5-11 1-3v-14l-5-17-10-22-10-19-11-18-7-9zm-46 192-14 8-21 14-18 13-15 14-8 10-5 13-1 11v24l3 36 2 15 8-1 20-7 22-9 17-8 18-11 7-6 7-10 3-10v-17l-3-18-10-38-6-18-3-5zm-91 176-22 8-32 13-15 8-10 8-7 8-6 10-5 14-4 24-4 36v7h10l44-5 21-5 13-5 10-6 5-4 6-9 4-10 2-20-1-28-3-37-2-7zm-125 154-39 3-25 4-15 5-11 7-10 10-8 13-11 25-10 26-4 12v4l39 4 15 1h24l14-2 11-4 8-6 6-7 7-14 5-19 4-22 4-40zm-225 114-16 2-11 4-8 6-5 5-9 10-10 14-12 18-9 15-4 7v2l28 10 30 8 15 3 16 1 10-2 14-7 11-11 8-13 8-16 11-30 6-18-1-4-31-3-16-1zm-198 67-12 3-10 5-11 8-14 12-13 13-8 7-8 8-2 1 2 4 16 12 19 12 24 12 18 6 5 1h14l11-4 13-10 9-9 13-17 10-14 11-18 6-10-1-2-30-9-26-7-21-4zm-195 21-14 3-16 7-21 12-23 15-7 4v3h2l2 4 8 8 8 7 12 12 8 7 15 12 14 8 6 2 13 1 13-2 12-5 11-7 10-8 12-11 20-20 7-6v-2l3-1v-3l-24-16-18-10-16-8-16-5-7-1z" fill="#62BAF5"/>
<path transform="translate(459,694)" d="m0 0 12 1 10 4 6 7 3 7v8l-4 10-10 14-15 16-11 12-10 11-8 10-10 12-17 26-9 15-13 26-8 20-10 28-14 56-4 21-6 39-1 18v34l2 23 6 38 6 28 6 24 12 36 6 15 10 19 7 12 12 26 12 20 7 11 13 18 9 11 12 13 9 10 9 11 7 10 3 7v8l-5 9-7 7-8 3-4 1h-8l-10-4-12-10-7-8-13-15-11-13-11-14-10-13-19-29-12-22-8-14-17-37-8-21-10-33-8-34-5-27-5-37-2-24v-37l3-36 5-37 7-35 11-38 8-24 8-18 16-35 15-29 15-24 8-11 10-14 10-13 12-14 9-11 14-15 9-6 5-2z" fill="#FED268"/>
<path transform="translate(984,356)" d="m0 0h43l40 3 36 5 25 6 27 8 31 11 27 11 34 16 19 11 23 14 18 13 17 12 11 9 14 12 13 12 11 9 6 8 3 8v10l-3 8-9 8-10 4h-9l-7-3-13-10-16-15-11-10-16-12-18-13-18-12-21-12-25-12-25-11-31-10-33-11-30-7-33-5-24-2h-52l-37 3-32 5-20 5-27 10-20 8-26 9-20 9-16 8-15 8-15 10-16 11-15 10-14 10-10 8-12 11-11 10-11 7-6 2h-9l-9-4-6-5-5-8-1-3v-10l5-10 22-22 8-7 13-11 19-14 17-12 20-13 15-9 18-10 25-12 26-10 25-9 36-11 27-7 27-5 41-4z" fill="#FFB63F"/>
<path transform="translate(1543,694)" d="m0 0 10 1 10 5 16 16 7 8 14 15 9 11 11 14 13 17 9 14 15 28 9 20 8 16 13 29 8 21 7 29 6 29 3 23v150l-3 31-6 27-9 32-9 27-11 25-10 21-10 19-12 21-12 19-12 16-8 11-11 14-24 28-13 12-8 4-8 1-9-2-6-4-6-7-3-5-1-5 3-10 9-13 8-9 9-11 11-12 12-16 10-13 11-16 20-34 11-23 11-24 12-34 7-27 5-25 4-33 2-32v-39l-3-41-4-32-7-34-12-36-6-15-15-33-8-16-10-18-9-15-14-18-9-12-14-18-12-13-7-8-9-10-5-8-1-4v-8l5-10 9-8z" fill="#FF9B1B"/>
<path transform="translate(530,769)" d="m0 0h13l10 4 8 7 4 8v12l-4 9-5 8-18 20-9 11-10 13-13 20-8 13-10 17-10 19-10 26-6 19-8 44-5 46v10l6 59 5 26 6 22 12 28 11 21 10 17 10 19 12 18 22 28 10 12 8 14 2 7v8l-4 9-9 8-9 2h-10l-7-3-10-8-8-8-7-8-13-16-14-17-10-15-15-25-15-31-12-29-8-24-7-31-5-32-3-32v-44l4-39 4-24 9-36 8-26 11-25 16-32 12-20 14-20 9-12 10-13 8-10 10-11 6-7z" fill="#FED268"/>
<path transform="translate(996,464)" d="m0 0h32l29 3 36 7 37 10 23 8 22 9 16 8 19 10 22 14 15 10 19 13 16 13 10 9 13 13 5 8 1 9-6 9-7 7-11 5-10 2-6-1-11-7-15-13-14-12-13-10-14-10-20-13-34-17-20-8-27-9-31-8-27-4-22-2h-50l-28 3-25 5-20 6-29 11-26 12-25 12-16 10-16 12-13 10-17 14-14 11-12 6h-10l-10-4-8-9-3-8 1-10 5-10 8-9 8-7 10-9 17-13 16-12 17-11 21-12 17-8 25-10 31-11 43-12 26-5 36-4z" fill="#FFB63F"/>
<path transform="translate(1462,769)" d="m0 0h11l10 4 13 10 13 14 9 11 9 10 15 20 15 24 9 14 10 19 12 36 8 27 6 27 4 29 2 23 1 19v41l-3 27-5 33-6 29-10 30-12 27-10 20-10 17-9 14-12 18-12 16-7 9-13 16-13 13-8 5-4 1h-8l-10-4-8-8-5-10v-7l5-10 13-16 10-11 11-14 13-17 12-18 12-21 14-29 11-33 6-26 5-35 1-11v-55l-2-25-4-26-9-34-9-27-8-16-9-19-12-21-8-12-14-17-8-10-12-14-7-8-9-12-4-11 1-9 5-8 7-6z" fill="#FF9B1B"/>
<path transform="translate(1880,884)" d="m0 0 2 2v4h-2l2 7v8l3 1 5 8 4 2 3 5 4 2 1 2 3 1 4 4 2 4 5 5 5 7 1 4 3 4h4v8l-3-1v-3h-3l-4-6v-2l-4-2-5-7-2-1v-2l-4 1-6-6v-2h-2l-15-15-4-1-9 12-15 25-10 18-6 16-1 5v19l3 13 11 25 13 23 11 17h3l10-9 7-8 9-9 7-8 11-12 5-2-4 11-2 1-4-1-2 6v2h-2l-1 3-5 3-1 5-3 1-1 2-3 4h-2l-2 4-3 1-1 3h-2l-2 4-3 4-1 3h-2l2 6v2l3 6 1 4 3 1 3 6 1 4 3 3 1 4 3 1 6 12h2l4 10 3 8 1 6h2l-1 6 1 3-3 1-2-5-3-9v-2h-2l-1-5-3-1-4-10-3-3v-2h-3l-9-16-10-14-4 2-8 7-15 15-7 8-13 14-9 13-5 11-2 11 2 18 7 30 9 30 4 11 14-7 32-22 12-9 3 1-2 6h-3l-1 3-5 2-2 4-4 4-8 6-4 2h-3l-1 3-9 6-6 3-6 4h-2l-2 18h2l1 5 3 7 1 4 5 11v4h2l2 10 1 13 3 1 2 9v26l-2 3v7l-6 10-1 3h-2v3l-4 1-3 6-7 4-3 1v2l-10 5h-2v2l-15 6-5 3-16 6-19 8-4 2h-3v2l-5 1-2 5-1 4 1 10 1 2 2 15 1 26v13l-1 19-3 11-3 6-2 1-5 9-7 6h-2l-2 4-11 6-12 6-7 1-27 6-19 3-16 2-9 2-3 3-3 10-2 15-2 6 1 3-3 19-2 9-4 20-8 16-4 5-5 5-3 1-1 3-4 2h-3v2l-6 3-9 2-10 2-26 2-23-1-5-1-28-2-5 2-6 9-6 17-6 12-3 11-3 5-7 14-3 7-7 11-9 9-10 6-4 2-12 3-9 1-14-1-24-5-6-2-11-3-10-3-8-4-9-3-7-1-9 2-4 5-2 6-5 3-2 2-3-2 3-9 6-10-4-2-2-5-10-4-9-3-11-2v-2l-8-1-8-4-9-2-3-1-11-2-5-1-13-1h-11v2l-4-1 2-1 1-6 14-3h17l18 3 24 7 37 12 4 1 10-18 11-18 9-12 11-14 12-12 13-8 11-4 14-2h34l35 4 15 2 1-7 15-44 8-18 9-14 10-12 10-8 14-7 19-5 31-4 26-2 9-1 1-11 5-41 4-22 6-17 6-11 9-10 11-9 19-10 24-9 25-8 12-3-5-38-1-9v-38l3-15 5-12 7-10 11-12 10-9 17-12 21-12 16-9 1-2-15-40-6-21-3-21v-17l2-12 5-12 9-13 11-13 12-13 17-17 8-7 2-3-12-19-9-14-13-24-7-16-3-11-1-9v-9l3-16 5-14 12-22 16-25 8-13 1-3-2-5-3-9 5 1 4 1 2-2 4 2 4-6zm-53 419-14 8-21 14-18 13-15 14-8 10-5 13-1 11v24l3 36 2 15 8-1 20-7 22-9 17-8 18-11 7-6 7-10 3-10v-17l-3-18-10-38-6-18-3-5zm-91 176-22 8-32 13-15 8-10 8-7 8-6 10-5 14-4 24-4 36v7h10l44-5 21-5 13-5 10-6 5-4 6-9 4-10 2-20-1-28-3-37-2-7zm-125 154-39 3-25 4-15 5-11 7-10 10-8 13-11 25-10 26-4 12v4l39 4 15 1h24l14-2 11-4 8-6 6-7 7-14 5-19 4-22 4-40zm-225 114-16 2-11 4-8 6-5 5-9 10-10 14-12 18-9 15-4 7v2l28 10 30 8 15 3 16 1 10-2 14-7 11-11 8-13 8-16 11-30 6-18-1-4-31-3-16-1z" fill="#4CACF2"/>
<path transform="translate(252,1454)" d="m0 0h2l1 4h4l1 4 16 4 33 11 23 10 15 9 12 11 8 11 6 13 5 17 4 24 3 40 1 2 17 1 38 5 20 4 13 5 12 7 12 11 10 14 8 15 10 28 10 32v2l34-5 10-1h42l17 3 12 5 11 8 12 12 10 13 13 21 15 27 5-1 30-11 18-6 17-4 16-2h12l15 3 9 4 12 7 16 13 21 21 7 8 9 11 3 2 18-11 5-2v5l-7 8h-3v2l-4 2-1 6 1 4-1 2h2l1 7-2-1v-3l-9-1-11-1-6 1-2 4-4 2-2-1v3l-5 1v-3l2-5 16-10-2-4-12-13-14-14-11-9-12-10-14-8-9-3-5-1h-19l-22 5-26 8-21 8h-3l4 8 10 15 12 19 13 16 9 10 10 8 12 6 4 1h13l15-4 11-5 24-12h4l1 3-1 2h-2l-3 3h-2v2l-4 2h-3v2l-14 6-6 1-1 4-3 3-13 4-20 2-10-3-11-5-7-3-8-8-11-14-12-17-8-13-13-23-2-4-10 3-28 12-18 6-20 4-8 1h-16l-13-2-11-4-9-6-5-4-10-13-12-22-8-20-12-35-2-4-39 4-14 1h-27l-20-3-13-5-11-8-7-9-8-15-6-18-5-26-4-36v-9l-17-1-45-7-18-4-16-6-10-6-10-9-7-10-6-13-3-15v-40l3-27 3-16 1-3-4-1v-3l-4-1-4-3-12-4 4-3h5v-2l7-2 10 3v-3zm8 25-2 15-2 36v25l2 17 6 12 8 8 12 7 20 6 29 5 30 3h7l-2-23-4-28-5-23-5-12-6-9-10-8-17-9-37-15-22-7zm126 153 1 14 6 38 6 25 5 13 6 9 9 8 12 5 13 2h33l24-2 21-3-1-7-9-27-14-33-6-11-6-8-11-8-11-5-17-4-33-4zm206 115-25 2-25 3-1 3 7 21 11 28 8 16 9 14 7 8 8 5 11 3h20l18-3 25-7 33-11 2-1-1-4-9-15-18-27-10-14-7-8-11-7-7-3-21-3z" fill="#2CCEE7"/>
<path transform="translate(630,863)" d="m0 0 10 1 11 4 9 8 3 7v9l-8 16-10 13-9 11-11 13-10 15-10 18-5 13-10 35-3 15-2 17v32l4 24 10 35 6 18 8 16 10 15 10 13 13 14 9 12 5 9 1 4v10l-4 9-5 5-5 4-6 2h-12l-10-4-10-9-8-9-10-13-13-17-8-13-16-32-7-17-8-29-4-19-3-25v-41l3-26 6-29 8-27 13-29 10-19 7-11 11-14 13-16 7-8 7-6z" fill="#FED268"/>
<path transform="translate(989,599)" d="m0 0h37l29 4 27 6 33 11 29 15 18 11 13 10 12 9 16 13 7 7 5 10-1 9-5 10-7 7-8 4-13 2-9-3-11-8-15-13-14-11-10-7-27-14-21-8-25-7-25-3-13-1h-22l-24 2-19 4-27 9-16 8-22 13-13 10-13 11-13 10-12 6-4 1h-8l-9-3-6-5-4-6-3-8v-10l4-9 7-9 12-10 13-10 14-10 24-14 19-10 19-7 31-9 20-4z" fill="#FFB63F"/>
<path transform="translate(1370,863)" d="m0 0h11l12 6 10 9 9 10 15 20 10 15 8 16 9 17 9 27 8 28 7 55v19l-3 24-5 25-15 47-12 25-11 19-11 16-11 14-5 6h-2l-2 4-9 8-10 5h-9l-10-3-7-6-4-8-1-5v-10l6-12 10-13 12-14 12-17 12-22 7-16 7-23 3-15 3-27v-26l-2-24-4-22-7-25-11-23-10-17-9-12-12-14-11-13-8-13-2-9 3-10 4-6 8-7z" fill="#FF9B1B"/>
<path transform="translate(1616,365)" d="m0 0 6 2 2 2 6 2 2 1 32 2 24 3 25 6 12 5 13 7 10 10 6 10 4 10 3 18v34l-3 34-1 8v9l26 9 29 11 19 9 12 8 10 9 7 10 4 10 1 4v26l-3 19-6 25-15 41 2 4 6 3 4 5 4 2 1 2 4 1 3 5-1 3-5-5-5-1-10-6-6-3-9 1-2 3h-3l-1 5-4 8h-3v-6l5-13-1-4-41-26-14-10-12-11-9-11-7-15-3-12-2-19v-16l3-32 3-22-33-11-26-11-14-8-17-12-9-10-7-12-6-18-4-20-4-31-2-19-29-3-15-2v-1l26 1 13 2-5-3-12-3-9-1-11-1-4-2 2-1 13 1 1-1h6l1-3 5-1 17 2v-5zm15 22v9l5 39 5 25 4 12 7 9 11 10 13 8 16 8 24 9 22 7h4l3-29 1-15v-36l-2-15-4-10-6-7-10-6-14-6-18-5-23-4-28-3zm121 155-2 7-3 33v41l3 13 7 13 11 12 10 9 18 13 20 12 12 6 2-3 10-26 8-28 3-16 1-16-1-11-5-12-7-9-11-8-19-10-19-8-19-7-16-5z" fill="#44C5ED"/>
<path transform="translate(580,1732)" d="m0 0h42l17 3 12 5 11 8 12 12 10 13 13 21 15 27 5-1 30-11 18-6 17-4 16-2h12l15 3 9 4 12 7 16 13 21 21 7 8 9 11 3 2 18-11 5-2v5l-7 8h-3v2l-4 2-1 6 1 4-1 2h2l1 7-2-1v-3l-9-1-11-1-6 1-2 4-4 2-2-1v3l-5 1v-3l2-5 16-10-2-4-12-13-14-14-11-9-12-10-14-8-9-3-5-1h-19l-22 5-26 8-21 8h-3l4 8 10 15 12 19 13 16 9 10 10 8 12 6 4 1h13l15-4 11-5 24-12h4l1 3-1 2h-2l-3 3h-2v2l-4 2h-3v2l-14 6-6 1-1 4-3 3-13 4-20 2-10-3-11-5-7-3-8-8-11-14-12-17-8-13-13-23-2-4-10 3-28 12-18 6-20 4-8 1h-16l-13-2-11-4-9-6-5-4-10-13-12-22-8-20-12-35-2-4-39 4-14 1h-27l-20-3-3-2 11 1h21l44-2 6-1h15l3 1-1-2h-9l-10 1h-13v1h-39l-5-2 4-1h13l3-1 2-3 3 3h10v-2l2-1v-3l34-4h5l1-5 14 2 33-5zm12 15-25 2-25 3-1 3 7 21 11 28 8 16 9 14 7 8 8 5 11 3h20l18-3 25-7 33-11 2-1-1-4-9-15-18-27-10-14-7-8-11-7-7-3-21-3z" fill="#44C5ED"/>
<path transform="translate(1377,136)" d="m0 0h22l14 3 12 6 10 9 10 15 8 15 11 28 11 35 18-2 23-3h42l19 3 14 5 9 7 9 11 7 15 4 13 6 29 4 32 1 15-8-3-5-3h-3l-5-41-7-31-6-16-6-9-8-6-9-4-19-3h-30l-29 3-16 2 5 18 10 26 8 18 7 13 9 10 14 10 16 6 22 4 25 3-4 4-7 2-14-1 10 2h9l16 4 6 3-2 2-12-2-27-1-24-4-21-7-11-7-11-10-7-10-12-23-11-29-9-26-3-1-26 4-24 2h-17l-20-2-15-4-12-6-9-7-9-9-11-15-14-22-13-23-2-3-6 1-9 3h-6l6-4-15 4-10 4-24 7-16 3-4-1 8-3 5-1h3v-3h2l1-6 21-6 30-10 4-3-4-8 1-3 7 1 1 4-1 2 3 1-1 1 3 1 4 1 4-2 3-3 38-14 22-7zm6 13-16 2-25 7-25 9-16 7 7 12 23 34 8 10 9 10 10 8 10 5 10 2h34l45-4 4-1-2-9-10-28-13-29-6-11-7-9-5-5-5-4-9-4-15-2z" fill="#2DCFE7"/>
<path transform="translate(722,958)" d="m0 0h13l12 5 9 7 5 8v11l-8 11-14 14-7 8-6 9-4 9-3 17v29l3 14 6 12 20 26 7 10 4 9v6l-7 10-7 7-8 5-6 2h-11l-6-3-10-9-13-17-8-13-9-20-8-24-2-10v-34l3-18 5-17 7-15 9-17 10-14 9-11 9-5z" fill="#FED268"/>
<path transform="translate(1172,1801)" d="m0 0h3v6l1-1 4-1h13l7 1 5 1 13 2 4 2 9 2 5 3 10 3 13 3 15 6 2 5-9-2-38-11-26-5h-15l-12 3-10 5-11 8-14 12-13 13-8 7-8 8h-2l5 5 13 10 19 12 24 12 18 6 5 1h14l11-4 13-10 8-8 13-17 10-14 8-13 2 4 4-2 4-1 1-6 5-6 9-1-2 5-6 9-11 19-11 17-8 11-11 13-10 9-13 8-13 4h-18l-17-4-19-9-19-12-21-14-14-9-5 1-17 17-7 8-20 20-13 10-14 8-7 2-10 1h-16l-15-2-12-5-13-9-10-9-8-7-10-10-7-8-12-13-4-4-5 1-28 20-15 9-19 10-16 6-15 3-14-1-13-4-11-7-1-2 4 1 10 4 11 3 19-2 13-4-1-2 4-1v-3l4-2 5-1 10-4h2v-2l4-2h3v-2l4-1 1-3 2 1-1-7 11-7 3 1-2 4h5v-3l3-1 4-2 1-2 6-2 11 1 9 2 1 1v-4h-2l-1-9 2-4 4-1v-2l5-3 4-5v-6l19-12 15-9 11-5 12-4 10-2h19l17 4 16 7 14 8 37 24 4 1 40-40 11-9 10-7 11-6zm-179 34-14 3-16 7-21 12-23 15-7 4v3h2l2 4 8 8 8 7 12 12 8 7 15 12 14 8 6 2 13 1 13-2 12-5 11-7 10-8 12-11 20-20 7-6v-2l3-1v-3l-24-16-18-10-16-8-16-5-7-1z" fill="#62B9F5"/>
<path transform="translate(992,732)" d="m0 0h19l23 3 22 6 15 6 21 13 14 10 9 8 5 9v9l-6 12-7 7-8 4-7 2-9-1-12-6-16-13-13-8-15-5-19-3h-11l-18 3-12 5-11 7-18 13-11 6-7 2h-10l-9-4-5-5-4-7-1-4v-13l4-10 8-10 13-10 16-9 19-8 19-6 11-2z" fill="#FFB63F"/>
<path transform="translate(1275,958)" d="m0 0h12l12 6 10 10 11 15 8 13 5 11 5 19 3 19 1 11v23l-3 24-6 20-8 16-7 11-11 13-11 10-6 4-3 1h-10l-9-3-7-6-4-10-1-8 3-10 6-10 10-14 8-14 6-17 2-15v-13l-3-18-5-13-7-13-9-10-6-8-6-12-1-3v-10l5-9 8-7z" fill="#FFB53E"/>
<path transform="translate(938,404)" d="m0 0 104 1 16 2 3 1 14 1 4 2 15 1 17 4 10 2 4 2h6l3 2 10 4 5-1v2l9 3 4 1 6 2 7 3 6 2 4 3 10 3 3 1 1 2 10 4v2l5 1 9 3v2l7 3 4 3v2l6 2 10 6 4 4-5-2-24-13-39-18-69-23-30-7-33-5-24-2h-52l-37 3-32 5-20 5-27 10-20 8-26 9-20 9-16 8-15 8-15 10-16 11-15 10-14 10-10 8-12 11-11 10-11 7-6 2h-9l-9-4-6-5-5-8-1-3v-10l5-10 22-22 8-7 13-11 19-14 17-12 20-13 15-9h2l1 3-6 4-5 5-8 6-14 6h-2v2h-2l-2 4-3 3h-2l-1 5 1 10h2l-2 4-1 6v6l5-1 7-4 7-3 16-8 15-9 9-4 8-5 23-10 12-5 10-5 11-5 17-5 22-6 12-3 16-3 16-2 16-3 3-3z" fill="#FED26A"/>
<path transform="translate(1370,863)" d="m0 0h11l12 6 10 9 9 10 15 20 10 15 8 16 9 17 9 27 8 28 7 55v19l-3 24-5 25-15 47-12 25-11 19-11 16-11 14-5 6h-2l-2 4-9 8-10 5h-9l-10-3-7-6-4-8-1-5v-10l6-12 10-13 12-14 12-17 12-22 2 3-5 9h-2l-2 9-2 3h-2l-1 5-5 9-3 4h-2l-2 4h-2l-2 4-4 7-6 5-4 5-2 6-2 2 2 7 1 3h3l1 8 4 1 2 2 10-1 6-4 1 3-2 3 4-2 2-4 3-2 3-8 3 1-1-3 5-5 4-3v-3h2l1-4 3-4 2 1 1 1v-3l-2-1 2-3h2l2-4 2-2 1-5 2-1 3-1-1-5 3-2 2-7 5-3 4-8 3-7 2-7 5-12 2-9h2l1-7 5-23 3-13h-3l1-6 1-2v-7h1l2-14v-11h-1l-2-26 1-1-2-3-1-14 1-3-1-1v2h-2l-3-15-6-20v-3h2l-7-14-3-5-1-8-2 1-2-6-3-3 1-4-4-2-2-7-4-5-4-8v-2l-2-1-5-6-1-5-3-1-9-11-2-2v-3h-3l-1-4h-2l-4-5v-2l-4-1-5-5-10-2-4 1-7 7h-3l2 12 2 4v3h2l1 6 3 1 4 7 1 5 3 1 3 4v3l3 1v2h2l1 5h2v2h2l2 5 4 5 2 9 2-1 2 7h2l5 12 1 4 4 7v2h2l-1 6h2l3 11 2 7 5 17 1 10v7l1 5 1 17v10l-1 14-3 15h-2v-9l1-9v-26l-2-24-4-22-7-25-11-23-10-17-9-12-12-14-11-13-8-13-2-9 3-10 4-6 8-7z" fill="#FFB63F"/>
<path transform="translate(947,512)" d="m0 0h88l13 1 19 5 15 2 12 3 11 2 3 2v2l9 1 15 6 6 1v2l6 1 10 3 5 4v2l6 1 7 3 5 3 5 4 7 3 5 3v2l4 1 9 6v2l4 2 11 6 1 2 5 3 9 8v2l5 2 5 5 7 5v2l4 2 4 3v2l6 2 1 1h11l5-3 1-3 5-1 1-4 2-4 1-8-1-12-4-7-7-6-3-1-1-4-2 1-2-1 1-4-3 1-3-3v-1l-4-2-8-6-5-5-11-9 2-1 16 11 12 9 10 8 10 9 13 13 5 8 1 9-6 9-7 7-11 5-10 2-6-1-11-7-15-13-14-12-13-10-14-10-20-13-34-17-20-8-27-9-31-8-27-4-22-2h-50l-28 3-25 5-20 6-29 11-26 12-25 12-16 10-16 12-13 10-17 14-14 11-12 6h-10l-10-4-8-9-3-8 1-10 5-10 8-9 8-7 10-9 17-13 16-12 17-11 21-12h2v2l-5 3-2 2h-3l-1 3-6 1v2l-4 2-5 5-10 8-10 6-5 2-2 4-5 4h-2l-1 4-1 2-7 2-4 4-5 2-4 2-9 9-1 2 2 1h-2l-1 6h-3l1 2v6l7 1 5 3 8 2 6-1 11-6 3-1 1-3 14-9 9-6 6-5 9-5 14-9h2v-2l22-11 6-4 10-4 4-3 10-4 1-1 9-2 18-6 15-3 5-2 18-4 12-1 5-2z" fill="#FED26A"/>
<path transform="translate(1880,884)" d="m0 0 2 2v4h-2l2 7v8l3 1 5 8 4 2 3 5 4 2 1 2 3 1 4 4 2 4 5 5 5 7 1 4 3 4h4v8l-3-1v-3h-3l-4-6v-2l-4-2-5-7-2-1v-2l-4 1-6-6v-2h-2l-15-15-4-1-9 12-15 25-10 18-6 16-1 5v19l3 13 11 25 13 23 11 17h3l10-9 7-8 9-9 7-8 11-12 5-2-4 11-2 1-4-1-2 6v2h-2l-1 3-5 3-1 5-3 1-1 2-3 4h-2l-2 4-3 1-1 3h-2l-2 4-3 4-1 3h-2l2 6v2l3 6 1 4 3 1 3 6 1 4 3 3 1 4 3 1 6 12h2l4 10 3 8 1 6h2l-1 6 1 3-3 1-2-5-3-9v-2h-2l-1-5-3-1-4-10-3-3v-2h-3l-9-16-10-14-4 2-8 7-15 15-7 8-13 14-9 13-5 11-2 11 2 18 7 30 9 30 2 7-6-2-2-8 1-2-3-1-2-9-3-6-1-3v-8l-3-2v-7l-3-6 1-2h-2l-1-7-1-5-1-17v-10l3-9 3-8 2-1v-4l1-2h2l3-5 2-1 6-10 6-4 1-4 4-4 3-2 2-5 5-2v-2h2l-2-3v-3l16-15-6-11-12-18-9-16-10-19-6-16-2-14v-9l3-16 5-14 12-22 16-25 8-13 1-3-2-5-3-9 5 1 4 1 2-2 4 2 4-6z" fill="#62B9F5"/>
<path transform="translate(1462,769)" d="m0 0h11l10 4 13 10 13 14 9 11 9 10 15 20 15 24 9 14 10 19 12 36 8 27 6 27 4 29 2 23 1 19v41l-3 27-5 33-6 29-10 30-12 27-10 20-10 17-9 14-12 18-12 16-7 9-13 16-13 13-8 5-4 1h-8l-10-4-8-8-5-10v-7l3-7h1v9 2l1 8 3 1 3 3 5 2 9 1h6l1-1h6v-2h2v-2l8-7 11-12 2-4 4-3 3-1 2-5 7-10 7-11 2-2 2-1 1-3 3-3 7-14 4-5 6-10h2l1-4 3-6 4-10 9-17 1-5 2-4 2-7 1-9h2l2-7 5-16 3-12 1-9 2-4 2-5 1-15h2l1-15 3-33v-26l-1-22-1-21-2-7-3-21-3-19-2-1-1-7-3-3v-5l-1-2v-6l-5-5 1-3-2-7-2 2-2-10-2-8h-2l-3-10v-2l-7-16-5-5-1-5-3-3 2-1-3-1-3-6-2-3h3l-5-2-1-5-3-1-2-6-4-6v-2l-2-1 1-2-3-2-4-4-1-5-3-1v-2h-2l-3-5-3-3-3-4-3-7-4-6-6-5-3-2v-2l-1-4-2 3-1-3-3-1v-2l-5-2-1-3-7-5-9-4-7 4-5 4h-2l-2 4-3 1 2 9 1 10h2l3 5 4 5 4 4 4 7 1 3h3v2l2 1v3l4 2 6 7v3h2l2 4v3l4 1 7 9 3 5 2 2 2 4 3 8v3l-3-3-9-14-14-17-8-10-12-14-7-8-9-12-4-11 1-9 5-8 7-6z" fill="#FFB63F"/>
<path transform="translate(1286,980)" d="m0 0h2l3 3v-2l3-1 3 6 3 1v2h2l1 3 5 5 3 5 5 10 4 11 1 4 3 9 3 3 3 6v35l-1 1-2 17-4 10-1 7-5 12-6 12-7 8-8 7-4 5-4 2h-5l-1-2h-5l-1-4 4-7h2l1-7 7-12 2-5h2l2-12 1-2v-11l2-5 1-5 2-7-1-2v-8h-2l-2-14-3-12-4-7-4-13v-2h-2l-1-6-5-10-2-7-2-4 3-7 3-5h3l1-4z" fill="#FF9B1B"/>
<path transform="translate(1555,696)" d="m0 0 8 4 16 16 7 8 14 15 9 11 11 14 13 17 9 14 15 28 9 20 8 16 13 29 8 21 7 29 6 29 3 23v150l-3 31-6 27-9 32-9 27-11 25-10 21-10 19-12 21-12 19-12 16-8 11-11 14-24 28-13 12-8 4-8 1-9-2-6-4-6-7-3-5-1-5 2-4 2 4 4 9 4 4 4 3h12l7-4 2-3h2v2h2l3-9 2 1 5-4 7-8 2-5h4l2-4 7-8 5-6 2-4h2l2-5 4-5 2-1 3-6 3-1 2-4 5-8 2-5h2l1-4h2l2-6 6-9 1-4 2-4 3-3 6-10 3-6h2l3-11h2l1-4 4-7 4-10 1-5 3-3 5-15 2-7 3-9 4-13 3-7 2-13 3-9 3-12 3-13 2-9 1-14h2l-1-9h2l-1-4 1-24-1-5 1-13-1-6v-26l1-4-1-11v-43l-1-3-1-13-1-3-1-7h-1v-9l-3-9-2-14-2-1-1-7-6-24-4-9-1-4-4-13-2-2-1-6-2-1-2-6-1-5-7-15-7-16-4-7-2-2-8-16-4-5-4-3-1-6-6-10-4-8-6-6-2-4h-3l-4-8v-2h-3l-5-8-1-4-5-2-4-6v-2l-4-2-1-3-3-2v-2l-2-1-2-5-4-2-4-4v-2l-2-1-6-6v-3h-2v-2l-3-1v-2h-2z" fill="#FEB741"/>
<path transform="translate(1066,939)" d="m0 0 6 2 19 10 15 11 10 8 14 14 9 12 8 13 9 19 5 21 3 24 1 16v68l-1 82-3 24-4 20-5 16-11 21-9 12-9 10-10 9-16 12-18 11-19 9-17 5-15 4v87l-1 26-3-1h2l-3-5-1-4v5l-2-1-1-9v-101l4-4 20-5 13-6 11-3 11-7 9-5 12-9 8-7 4-4 2-1 4-6 6-7 3-5 4-5 1-3 2-1 6-12h2l1-5 7-17 2-4 1-4v-6l2-2v-4h2v-10l1-12 1-57v-22l-1-21h-1l-1-54-1-9v-15h-1l-3-14-5-15-5-11-5-10-1-3-3-4-6-10-7-8v-2h-2l-12-14-6-4v-2l-4-1-7-5v-2l-5-2-14-8z" fill="#FED36C"/>
<path transform="translate(1095,614)" d="m0 0 9 2 15 6 25 13 18 11 13 10 12 9 16 13 7 7 5 10-1 9-5 10-7 7-8 4-13 2-9-3-11-8-15-13-14-11-10-7-27-14-21-8-25-7-25-3-13-1h-22l-24 2-19 4-27 9-16 8-22 13-13 10-13 11-13 10-12 6-4 1h-8l-9-3-6-5-4-6-3-8v-10l4-9 3-3 1 6-2 4 4 10 3 5 5 2 12 1 4-3h3v-2h2v-2l7-2 8-6 10-8 10-7h2v-2l10-4 13-7 10-5 7-3 9-3 19-5 15-3 5-3 7-1 30-1 23 1 12 2 6 2 12 2 12 3 6 3 7 1 6 3 9 1 8 5 1 3 6 1 13 7v2l4 1 8 3 11 9 4 2v2l5 2 5 5 14 10 6 3h13l4-3h2l6-15-1-9-4-7-1-3-3-2v-2l-3-1-2-4-4-1-11-9-9-7-13-10-10-5-11-5-10-6-7-4v-2l-6-1-2-2-8-3z" fill="#FED26A"/>
<path transform="translate(1754,1478)" d="m0 0h1l4 45v43l-3 16-6 12-9 10-10 9-14 7-15 4-25 4-45 5-2 10-4 34-6 29-6 18-6 11-8 10-11 8-12 5-16 3-18 1-27-2-37-4-5-1-3 11-12 35-11 24-8 14-8 10-8 8-10 6-15 3h-18l-26-4-22-6-16-6-21-9 1-3 12 3 10 4 8 3 9 3 10 2 5 2 20 4 15 1 12-2 9-3 10-5 10-9 6-8 4-7 3-7 5-11 4-8 3-9 6-13 5-15 6-9 2-2 8-1 24 2 5 1 25 1 24-2 15-3 8-3h2v-2l7-3 7-8h2l2-4 6-11 4-10 4-20 1-6 3-19-1-3 2-5 2-17 4-9 3-3 14-3h22l16-3 22-4 12-4 8-4h2v-2l9-5 8-7 7-8 6-13 3-18v-27l-2-28-1-9z" fill="#62B9F5"/>
<path transform="translate(921 1e3)" d="m0 0h5v2h2v5h-5l-11 11-8 10-5 13-5 29-1 14v97l1 35 2 23 4 20 5 16 8 15 8 11 9 9 17 12 19 10 13 4v1h-9l-20-6-14-7-6-4v-2h-3v-2l-5-2v-2l-4-2v-2h-2l-5-5-5-7v-2h-2l-2-4-2-1-2-7h-2l-8-22-2-6-2-17-2-31v-14l1-40v-75l3-22 3-11 2-5 3-10 2-5h2l2-6 7-8z" fill="#FED36C"/>
<path transform="translate(1250,448)" d="m0 0 5 2 4 4 12 2 1 3 8 1 15 6 5 4 3 1 4 4 11 8 18 9 1 3 5 2 5 4 8 8 8 6 4 5-1 12-6 5-2 2h-2l-8 2-6-3-6-2-2-3-3-1-10-10-5-3-3-5-4-4-2-5h-3v-2h-2l-4-4v-2l-4-1-4-4v-2l-6-2-2-1v-2h-2v-2l-4-2-7-6-4-3v-2l-6-3v-2h-2l-2-3-5-2 1-5-2-2z" fill="#FF9B1B"/>
<path transform="translate(1056,742)" d="m0 0 6 1 14 7 19 12 12 9 8 7 5 9v9l-6 12-7 7-8 4-7 2-9-1-12-6-16-13-13-8-15-5-19-3h-11l-18 3-12 5-11 7-18 13-11 6-7 2h-10l-9-4-5-5-4-7-1-4v-13l4-10 4-4-1 5h-2l-1 12 2 8v4h2v2l4 2 3 2 2-1 11 1 4-1 1-3 7-3 5-2v-2l8-5 7-3 12-6 8-2 9-3 20-2 24 3 15 5 4 3 16 7 5 5 10 7 4 3 3 1h11l10-9 1-4 2-7-1-9-2-4-7-6-5-5-6-5v-2l-5-2-7-4-5-4-7-4z" fill="#FED26A"/>
<path transform="translate(1388,867)" d="m0 0 5 2 10 9 9 10 15 20 10 15 8 16 9 17 9 27 8 28 7 55v19l-3 24-5 25-15 47-12 25-11 19-11 16-11 14-5 6h-2l-2 4-9 8-10 5h-9l-7-2 1-2 8-1 4 1 7-4 5-5 11-12 9-12 2-3h2l2-4 7-9 2-4 2-1 4-10 7-11 5-10h2l3-10 2-4 2-7 4-10 3-11 5-15 2-20 1-6 1-13 2-15v-17l-3-31-2-10-2-11-7-24-6-21-11-21-10-19-6-10-10-14-5-6-5-5v-2h-2l-6-9-8-9z" fill="#FED471"/>
<path transform="translate(1456,985)" d="m0 0h2l8 27 2 16 2 9 2 24v17l-2 15-1 15-2 11-1 13-5 15-6 20-2 2-2 8-5 12h-2l-1 5-9 15-6 12h-2l-2 6-8 9-4 5-7 9-11 13-6 5-3 4-6 3-6-1v1h-10l-7-6-4-8-1-5v-10l6-12 10-13 12-14 12-17 12-22 2 3-5 9h-2l-2 9-2 3h-2l-1 5-5 9-3 4h-2l-2 4h-2l-2 4-4 7-6 5-4 5-2 6-2 2 2 7 1 3h3l1 8 4 1 2 2 10-1 6-4 1 3-2 3 4-2 2-4 3-2 3-8 3 1-1-3 5-5 4-3v-3h2l1-4 3-4 2 1 1 1v-3l-2-1 2-3h2l2-4 2-2 1-5 2-1 3-1-1-5 3-2 2-7 5-3 4-8 3-7 2-7 5-12 2-9h2l1-7 5-23 3-13h-3l1-6 1-2v-7h1l2-14v-11h-1l-2-26 1-1-2-3-1-14 1-3-1-1v2h-2l-3-15-3-10-2-8h2v-2z" fill="#FFB53E"/>
<path transform="translate(1462,769)" d="m0 0h11l10 4 12 9 4 7 9 10 10 13 1 5h2l6 8 3 2 3 5 5 6 8 16 9 12 4 8 3 7 5 12 4 5 6 18 5 12 6 18 3 7 4 18 3 6 3 21 2 13 2 14v9l-4-1-1-14-2-7-3-21-3-19-2-1-1-7-3-3v-5l-1-2v-6l-5-5 1-3-2-7-2 2-2-10-2-8h-2l-3-10v-2l-7-16-5-5-1-5-3-3 2-1-3-1-3-6-2-3h3l-5-2-1-5-3-1-2-6-4-6v-2l-2-1 1-2-3-2-4-4-1-5-3-1v-2h-2l-3-5-3-3-3-4-3-7-4-6-6-5-3-2v-2l-1-4-2 3-1-3-3-1v-2l-5-2-1-3-7-5-9-4-7 4-5 4h-2l-2 4-3 1 2 9 1 10h2l3 5 4 5 4 4 4 7 1 3h3v2l2 1v3l4 2 6 7v3h2l2 4v3l4 1 7 9 3 5 2 2 2 4 3 8v3l-3-3-9-14-14-17-8-10-12-14-7-8-9-12-4-11 1-9 5-8 7-6z" fill="#FFB53E"/>
<path transform="translate(1754,1478)" d="m0 0h1l4 45v43l-3 16-6 12-9 10-10 9-14 7-15 4-25 4-45 5-2 10-4 34-6 29-6 18-6 11-8 10-11 8-12 5-16 3-18 1-27-2-30-3v-1h13l18 1h27l19-2 18-5 9-5 9-8 1-2h2l1-4 4-5 4-7 4-12 2-10 4-18 2-26 4-19 5-5 12-3 20-2 16-3 22-4 12-4 8-4h2v-2l9-5 8-7 7-8 6-13 3-18v-27l-2-28-1-9z" fill="#79D5F4"/>
<path transform="translate(555,775)" d="m0 0 6 5 4 8v12l-4 9-5 8-18 20-9 11-10 13-13 20-8 13-10 17-10 19-10 26-6 19-8 44-5 46v10l6 59 3 17-1 3-4-11-3-15-3-22-2-39 1-33 3-19 4-22 3-8 1-6h2v-8l2-6h2l2-9 4-13 7-19 5-11 6-13 6-10 8-14 6-10 2-3h2l1-4 6-7 3-5h2l2-5 9-10 3-5 3-2 1-3 10-10 6-9 2-7v-10l-4-9z" fill="#FDFFFF"/>
<path transform="translate(1495,783)" d="m0 0 6 5 7 8 12 14 11 13 13 18 13 21 9 14 10 19 12 36 8 27 6 27 4 29 2 23 1 19v41l-3 27-5 33-6 29-10 30-12 27-10 20-2 1 1-4 5-12 8-16 9-27 8-25 2-12 5-15 1-6 4-31 2-41v-14l-2-37-3-23-3-15-1-9-3-6-5-22-4-8-7-21-4-9-4-13-6-9-3-8-6-12-4-7-7-9-3-7-6-11-5-5-1-3-8-8v-2h-2l-2-5-13-16-9-11z" fill="#FED36D"/>
<path transform="translate(1077,1508)" d="m0 0 9 2 12 6 12 9 9 10 8 13 5 12 2 12-1 17-3 12-9 19-11 12-11 8-8 4-15 3h-135l-15-2-12-4-11-6-8-7 3-1 10 6 14 7 10 2 3 1 16 2h107l8-1 8-4 12-4 9-6 11-9 4-4 10-20h2l1-6-2-1 3-12-2-17-4-13-2-4h2l-2-2-2-4-2-2-2-6h-2l-5-5-4-3v-2l-6-2-10-6-6-3z" fill="#FED36C"/>
<path transform="translate(1293,961)" d="m0 0 8 5 8 8 11 15 8 13 5 11 5 19 3 19 1 11v23l-3 24-6 20-8 16-7 11-11 13-11 10-6 4-3 1h-10l-9-3-7-6 1-2 4 3 6 2 4 1 11-3 1-2 2 1 12-12 11-13 3-5 8-15 3-7 1-10 3-2 1-7h2l1-23v-8l2-4-1-17-2 1v-14l-7-21-2-1-2-10-9-17-13-17-3-4v-2l-3-1z" fill="#FED36E"/>
<path transform="translate(692,1069)" d="m0 0h1l1 13 2 5 1 9 2 5 2 6 4 9 4 6 3 4 3 5 5 6 4 4 3 2 1 6 2 7-2 5-3 3h-2l-1-2-4 1-1-4-7-1-4 1-4-8-4-4-6-16-4-4v-3h2v-4l-3-3v-19l-1-4 1-4-3-9v-6l4-2z" fill="#FFB63F"/>
<path transform="translate(648,867)" d="m0 0 7 4 6 7 2 5v9l-8 16-10 13-9 11-11 13-10 15-10 18-5 13-10 35-3 15-2 17v32l4 24 10 35 5 15-1 2-3-4-4-8-6-22-3-7-3-10-3-38v-22l3-27 3-14 4-9 2-11 4-10 4-11 5-8 5-9 8-14 10-14 14-17 6-10h2l1-6 2-8-1-8-5-10z" fill="#FDFFFF"/>
<path transform="translate(1727,1477)" d="m0 0 8 1 1 2-22 8-32 13-15 8-10 8-8 10-6 12-4 14-4 28-4 34 4 1h-5v-3h-2v-2l-3-1 1-2-2-1 1-8v-3h2l-1-7 1-16 2-9 2-19 3-12 8-13 4-5 2-4 5-2 4-4h2l1-3 7-3 5-3h3v-2l9-3 25-9 9-2z" fill="#62B9F6"/>
<path transform="translate(1125,394)" d="m0 0h5l5 1 5-1 14 2h10l15 3 12 5 11 3 9 6 17 7 16 8 5 4 16 6 11 7 12 7v2l5 1 3 2v2l-6-2-9-6-15-8-8-5-14-3-6-5-5-1-3-2-2-4-9-1h-7l-1-3h-6l-5-5-8 1-5-2h-8l-2-4h-4l-2-4-2-1h-7l-5 2h-7l-11-1h-4v2l9 1 4 2 1 2 4-1v3l-1 2 5 1 10 4 14 5 10 6 1 2 12 5 1 2-5-1-11-4-10-6-10-5-10-4-17-6-6-4-10-3 1-5-11-1-2-2 8-4z" fill="#FF9B1B"/>
<path transform="translate(981,972)" d="m0 0 39 1 3 3h-45l1 16 1 30v45l-3 6-8 6-13 3h-8l-10-3-5-4-4-9-1-10 2-2 4 4 4 10 2 1v2h2v3h12v-2l4-2h3l1-3h2l2-4 1-3h2l2-24v-58l2-5z" fill="#FED36C"/>
<path transform="translate(1590,1629)" d="m0 0h17l4 3v2l-39 3-25 4-15 5-11 7-9 9-8 13-11 25-10 26-4 12-1 5-1-3h-2l-2-5 1-9 3-9 5-17 5-10 5-12 6-13h2v-2h2l1-4 3-4 4-2 5-6 11-6 13-5 15-3 6-1 27-2z" fill="#62B9F6"/>
<path transform="translate(1855,1108)" d="m0 0 1 4 3 1 7-3h6v3l-10 9-14 14-7 8-13 14-9 13-5 11-2 11 2 18 7 30 9 30 2 7-6-2-2-8 1-2-3-1-2-9-3-6-1-3v-8l-3-2v-7l-3-6 1-2h-2l-1-7-1-5-1-17v-10l3-9 3-8 2-1v-4l1-2h2l3-5 2-1 6-10 6-4 1-4 4-4 3-2 2-5 5-2v-2h2l-2-3v-3z" fill="#63BAF5"/>
<path transform="translate(1924,1040)" d="m0 0 2 1-5 11-5-1-2 6v2h-2l-1 3-5 3-1 5-3 1-1 2-3 4h-2l-2 4-3 1-1 3h-2l-2 4-3 4-1 3h-2l2 6v2l3 6 1 4 3 1 3 6 1 4 3 3 1 4 3 1 6 12h2l4 10 3 8 1 6h2l-1 6 1 3-3 1-2-5-3-9v-2h-2l-1-5-3-1-4-10-3-3v-2h-3l-9-16-10-14-9-1-7 3-1-2h-2l1-5 8-8-1-4 2-6 5-1 1-2 4 3 11-10 7-8 9-9 7-8 11-12z" fill="#4CABF2"/>
<path transform="translate(1823,1301)" d="m0 0 7 1-3 2-14 8-21 14-18 13-15 14-8 11-4 11-1 11v24l4 48-5-5-3-8v-7l-1-3-2-38-1-17v-6l2-4 2-8 3-7h2l1-5 15-12h2l2-4h3l1-3 5-3h2l1-3 7-4 6-4h2v-2l12-7 8-4z" fill="#62BAF6"/>
<path transform="translate(1859,584)" d="m0 0 3 4 3 10v26l-3 19-6 25-14 39-4 1-3-2-2-8-3-1 7-20 7-22 5-20 2-22h1v5h2l2 11 1-4 2-10 1-18h1v23l-1 11 1-2 1-9 1-2v-12l-3-16z" fill="#62BAF5"/>
<path transform="translate(986,1829)" d="m0 0h19l9 2h7l22 11v2l8 2v2l5 1 3 3h3v2l4 1 1 2 8 4 5 1v4l3 1v2h2l1 3-2 1-20-13-18-10-16-8-16-5-7-1h-14l-14 3-16 7-21 12-23 15-5 3h-2v3h2l-1 3-4-6 1-6 5-2v-2l5-3 4-5v-6l4-2 7 2 1-2 6-2 12-7 7-3 9-5z" fill="#62BAF5"/>
<path transform="translate(991,1820)" d="m0 0h19l9 5 15 4 4 4 10 5 2 4 5 2 13 8 6 5 4 2 1 4-4-1-9-5-2-1v-2l-6-2-4-3-3-1v-2l-5-1-3-1-1-2-9-4-12-6h-7l-9-2h-19l-16 4-12 7-10 4-7 5-6 2h-7l2-4 18-11 14-8 15-6z" fill="#4DADF2"/>
<path transform="translate(263,1463)" d="m0 0 16 4 30 10 23 10 15 9 12 11 8 11 6 13 5 17 4 24 2 25-2-1-3-16-3-20-4-16-3-11-4-9-3-3-3-7-2-6-6-2-3 2-1 2-4 1-2-2 1 2 5 3 3 4-1 2-11-9-17-9-34-14 2-3 13 3 8 4 10 4 19 10 4 1-2-5-6-5-2-1v-2l-5-1-1-3-5-1-11-5-7-3-8-3-12-4-5-3-7-2-9-4z" fill="#2EEEDE"/>
<path transform="translate(567,1742)" d="m0 0h6l5 1h41l8 2v1l-13-1h-23l-38 4-10 2-1 4 7 21 11 28 8 16 9 14 6 7 8 5 9 3v1h-7l-12-6-8-7v-2l-3-1-3-6-3-3v-3h-3l-5-13-4-7-2-9-4-11v-4l-4 1-3 2v5h-2l-7-21v-6l4-3 2-5 4-4 8-2z" fill="#31CEE8"/>
<path transform="translate(842,1244)" d="m0 0 2 4 4 16 3 10 3 7 5 10-1 3h2l1 4 2 1 4 8 2 6 5 7v2h2v2h2l4 6v2h2l7 9 4 2 5 5 1 3 5 2 11 8 10 5v2l4 1 6 3 6 1v2l3-1 8 3v2l9 1 7 2 4 3 2 5-16-4-19-6-21-10-12-8-10-8-12-11-9-10-8-11-8-14-7-15-7-20-4-16z" fill="#FFD268"/>
<path transform="translate(1131,517)" d="m0 0 17 1 7 2 3 2 12 1 7 6h6l6 3 8 1 15 6 7 2 18 10 13 9-3 1-8-5-19-9-12-3-5-1-8-4-15-2h-5l2 5 6 2 5 3 12 12 10 7v2l-4-2-8-5-10-8-10-5-5-4-9-5v-2l-5-2-6-5-1-2-5-3-1-3h-8l-5-2z" fill="#FF9B1B"/>
<path transform="translate(1077,1007)" d="m0 0 5 1 1 3-4 1-2 13 1 22v20l-6 8-7 5-12 3-11-1-9-4-5-5-1-9 4 2 4 4 3 1v2h5v2l12-2 7-4 4-10 1-5 1-16 3-2v-16l-2-2v-6l3 1 1-4z" fill="#FED26B"/>
<path transform="translate(1290,1843)" d="m0 0 4 1-6 9-11 19-11 17-8 11-11 13-10 9-13 8-13 4h-18l-17-4-19-9-6-4 2-1 19 8 17 4 11 1 15-3 15-8 11-9 5-5 8-9 2-3h2l2-5 15-20 3-7h2l1-5 6-8z" fill="#79D5F4"/>
<path transform="translate(1880,884)" d="m0 0 2 2v4h-2l2 7v8l3 1 5 8 4 2 3 5 4 2 1 2 3 1 4 4 2 4 5 5 5 7 1 4 3 4h4v8l-3-1v-3h-3l-4-6v-2l-4-2-5-7-2-1v-2l-4 1-6-6-2-8-4-2v-2l-4-2-5-5-11-2-5 2-2 3-5-1 1-5 4-8-2-5-3-9 5 1 4 1 2-2 4 2 4-6z" fill="#4CABF2"/>
<path transform="translate(474,697)" d="m0 0 5 1 7 6 4 9v8l-4 10-10 14-15 16-11 12-10 11-8 10-10 12-5 7-1-2 10-16 10-15 9-12 5-5 3-4h2l2-5 3-1 2-4 9-10 2-3h2l2-6 3-5v-13l-2-10z" fill="#FDFFFF"/>
<path transform="translate(1471,1755)" d="m0 0h3l-3 11-12 35-11 24-8 14-8 10-8 8-10 6-15 3h-18l-26-4-12-3v-1l10 1 16 3 17 1 16-2 12-5 8-6 11-11 1-3h2l2-6 7-12 12-28 4-13 8-18z" fill="#7BD5F5"/>
<path transform="translate(1787,684)" d="m0 0 6 1 11 6 3 3 3 1v2l8 1 4 2 4-1 2 1 3-3 4 4v5l6 1 1 4 3 3 4 2 4 5 4 2 1 2 4 1 3 5-1 3-5-5-5-1-10-6-6-3-9 1-2 3h-3l-1 5-4 8h-3v-6l5-13-1-4-2-1-1-4-5-5-5-3-9-6v-2l-3 1-8-7z" fill="#43C4ED"/>
<path transform="translate(1922,1165)" d="m0 0 3 4 7 19 2 12v9l-2 9-6 11-10 13-12 12-13 10-21 14-17 10-9 6-1-3 8-7 13-7 6-4h2v-2l10-6 3-3 7-4 4-5h2l1-4 7-5 4-5h2l2-4 5-8h2l3-9h2l1-7 1-19-3-10-2-10-1-3z" fill="#77D4F4"/>
<path transform="translate(893,1887)" d="m0 0 4 1-13 9-14 10-15 9-19 10-16 6-15 3-14-1-13-4-11-7-1-2 4 1 10 4 11 3 19-2 24-8 17-8 16-10 12-6z" fill="#76D6F3"/>
<path transform="translate(1092,1887)" d="m0 0h5l-6 7-10 10-7 8-20 20-13 10-14 8-7 2-10 1h-16l-15-2-12-5-1-2 10 3 9 1h23l11-2 12-6 14-10h2v-2l14-11 3-3h2l2-4 15-15 7-6h2z" fill="#74D6F3"/>
<path transform="translate(1910,755)" d="m0 0 7 6 8 10 6 11 3 9v20l-3 13-8 18-9 17-15 23-11 18-2-3 2-6 7-10 5-10h2l1-5 5-7 4-9 6-10 5-17 4-11v-7l1-2v-16l-7-14-2-5-8-10z" fill="#78D5F4"/>
<path transform="translate(1690,378)" d="m0 0 12 2 17 5 19 10 10 10 6 10 4 10 2 11-1 22v7l-1 2v16l-4 40-2-1 1-32 1-11 1-13-1-9-1-13-1-18-3-13-3-1v-2l-5-2v-3h-3v-3h-2v-2l-4-2-15-10-10-2v-2l-11-2-6-3z" fill="#2FCEE8"/>
<path transform="translate(1301,175)" d="m0 0 4 4 10 16 17 25 8 10 9 10 2 4h-6v-2l-6-2-1-3h-2l-3-3-3-1v4l3 1 5 6v3l-3 1-9-10-14-21-8-13-1-4 2 1v2h2v3h2l5 9 5 4 2 5 4 2-3-6-6-10-1-5-3-4-2-7-2-1-3-6-3-3v-4h-2z" fill="#2EEEDE"/>
<path transform="translate(939,1552)" d="m0 0h101l21 1 7 2v1h-120l-12 2-8 4-5 9-1 3v9l4 8 3 3h-5l-1-3h-3l-3-9-1-11 1-7 5-6 8-4z" fill="#FED678"/>
<path transform="translate(1629,388)" d="m0 0 2 1 6 46 5 25 4 12 7 9 10 9 4 3v2l-5-2-6-5-2 2-1-4-4-2-3-4v-2h-2l-5-10-6-18-1-9-1-7-1-10-2-5v-5l-5-1-1 3-2 1-1-2v-11l2-5h2l-1-3 2-1v-3l3-1z" fill="#31CEE8"/>
<path transform="translate(1384,1744)" d="m0 0h32l18 2 15 3v1l-22-1-16-1h-25l-16 2-11 4-8 6-4 2-2 4-7 8-10 14-12 18-9 15-3 4-1-1v-7l5-7 6-11 6-10 12-15 4-6h2l2-5 12-10 11-6z" fill="#78D5F4"/>
<path transform="translate(876,424)" d="m0 0 4 1-30 12-34 12-20 9-16 8-15 8-15 10-16 11-15 10-14 10h-3l8-8 17-12 16-12 12-7 7-4 20-12 14-7 8-3 13-6 20-8 33-11z" fill="#FDFFFF"/>
<path transform="translate(1383,1741)" d="m0 0h20l25 2 24 5 2 1v2l-20-4-18-2h-32l-21 3-11 6-11 9-3 5-4 4-9 12-5 6-5 9-10 17-1 1v9l-1 2-4-2-1-5 1-4 3-7 2-1 2-6h2l2-5 4-7 4-5 3-5 9-12 3-5 5-4 4-4h2v-2l11-7h3v-2l9-2h7z" fill="#62B9F6"/>
<path transform="translate(1184,1811)" d="m0 0h16l16 2 26 7 24 9-3 1-27-8-26-6-7-1h-15l-12 3-10 5-11 8-14 12-13 13-8 7-8 8-2-3 7-9h2l2-4 9-10 3-3h2v-2l8-7 10-8 12-8 14-5z" fill="#79D4F5"/>
<path transform="translate(1864,1391)" d="m0 0h1v11l-4 16-4 8-5 6-12 9-23 12-23 9-35 12h-3v-2l6-3 11-4 10-5 17-6 9-4 16-8 14-9 5-5h3l1-3h2l2-4 5-6 4-12z" fill="#78D4F5"/>
<path transform="translate(1572,1633)" d="m0 0h39v1l-39 3-25 4-15 5-11 7-9 9-8 13-11 25-10 26-4 9-1-4 3-15 4-11 2-7 3-7 6-11 8-16 10-11 6-4 4-4 9-4 12-4 18-2z" fill="#78D5F4"/>
<path transform="translate(258,1480)" d="m0 0 2 1-3 49v25l2 17 6 12 4 5-2 4-5-3-2-4-2-1-4-8-3-9-1-11 1-9h2l-1-12-2-1-1-10 1-4v-15l-2-1 1-11 5-3 1 4z" fill="#2FEDDE"/>
<path transform="translate(724,1107)" d="m0 0 4 5 20 26 7 10 4 9v6l-7 10-7 7-8 5-6 2h-11l-6-3v-1l14-2 8-4 6-4 1-2h2l3-12v-7l-4-11-10-13-4-5v-2h-2l-4-10z" fill="#FDFFFF"/>
<path transform="translate(1762,658)" d="m0 0 6 2 10 9 18 13 20 12 7 4 1 3-5-1-9-3v-2l-5-1-1-3-4-1-10-5-3-1 4 5 5 3h2l5 5 8 4 4 5 3 2-1 3-38-24-10-7-3-4 1-2 4 2 2-6-3-3-6-3z" fill="#61BBF5"/>
<path transform="translate(1462,769)" d="m0 0h5l-5 5-10 5-2 4-3 1 2 9 1 10h2l3 5 4 5 4 4 4 7 1 3h3v2l2 1v3l4 2 6 7v3h2l2 4v3l4 1 7 9 3 5 2 2 2 4 3 8v3l-3-3-9-14-14-17-8-10-12-14-7-8-9-12-4-11 1-9 5-8 7-6z" fill="#FFB842"/>
<path transform="translate(1720,1483)" d="m0 0 4 1-35 14-19 9-12 9-7 8-6 10-5 14-4 24-4 36-2-1v-21l4-33 6-19 7-14 5-5 11-10 12-6 17-7 16-6z" fill="#79D3F5"/>
<path transform="translate(744,962)" d="m0 0 9 5 6 7 2 4v11l-8 11-14 14-7 8-6 9-3 3 1-6 7-14 11-13 6-12-1-16z" fill="#FDFFFF"/>
<path transform="translate(1375,144)" d="m0 0h10l14 2 9 4 1 3-9-2-17-1-16 2-25 7-25 9-14 6h-2v-4l12-7 8-3 12-5 16-5 17-4z" fill="#2FEADF"/>
<path transform="translate(858,1895)" d="m0 0 4 1-1 5h-2l-3 3h-2v2l-4 2h-3v2l-14 6-6 1-1 4-3 3-13 4-20 2-10-3-2-1v-2l4-1 4 2 9 1 15-1h-4l-4-3 1-3 1-1 21-6 16-8z" fill="#49C4EE"/>
<path transform="translate(1665,843)" d="m0 0 2 1 13 28 13 31 6 22 8 36 4 29v10l-2-3-3-17-2-15-3-14-3-13-3-8-4-17-4-10-3-8-3-10-4-9-2-7-5-11-2-5v-3h-2l-2-6z" fill="#FED36C"/>
<path transform="translate(698,1838)" d="m0 0 9 1-4 2-33 14-18 6-20 4-8 1h-16l-13-2-11-4-2-2 5 1 12 3h18l17-3 18-5 23-7 21-6-2-2z" fill="#76D4F4"/>
<path transform="translate(891,1882)" d="m0 0 11 1 1 2-12 4-19 11-12 6-13 8-18 8h-7l4-2v-3l4-2 5-1 10-4h2v-2l4-2h3v-2l4-1 1-3 2 1-1-7 11-7 3 1-2 4h5v-3l3-1 4-2 1-2z" fill="#5DBBF4"/>
<path transform="translate(465,1182)" d="m0 0 2 2 11 26 11 21 10 17 10 19 12 18 10 13h-3l-3-3v-2h-2l-2-5h-2l-1-5h-2l-6-8-3-5v-2h-2l-5-9v-2h-2l-6-8-6-11-3-8-11-22-3-10-4-10z" fill="#FDFFFF"/>
<path transform="translate(981,1822)" d="m0 0h5v8l-16 4-12 7-10 4-7 5-6 2h-7l2-4 18-11 14-8 15-6z" fill="#46C4ED"/>
<path transform="translate(1262,579)" d="m0 0 11 7v3l4 3-1 3h-3l2 6-1 2h-3v-2l-6 2-8-1-5-4-1-5 3-1-1-5-4-2 1-4 6-1 4 1z" fill="#FF9B1B"/>
<path transform="translate(1374,511)" d="m0 0 5 5 3 8v10l-3 8-9 8-10 4h-9l-7-3-9-7 2-1 9 4 10-1 7-1 1-2 3 1 2-5 4-3 1-9 3-1-1-8-2-4z" fill="#FED471"/>
<path transform="translate(641,1221)" d="m0 0 5 4 9 12 5 9 1 4v10l-4 9-5 5-5 4-6 2h-12l5-4 10-5 6-8 2-4 1-13-2-6-5-10v-2h-2l-3-5z" fill="#FDFFFF"/>
<path transform="translate(1859,584)" d="m0 0 3 4 3 10v26l-3 19-6 25-13 36h-2l-1-2v-6l3-8 4-11 6-21 4-13 3-12 1-2 1-9 1-2v-12l-3-16z" fill="#79D5F4"/>
<path transform="translate(1816,1307)" d="m0 0 4 1-16 10-15 10-16 12-13 12-8 10-5 13-1 11-1 24h-1l-1-19-1-11 1-10 12-20 8-7 5-5 12-9 10-7 6-2v-2h4v-2l13-8z" fill="#78D3F5"/>
<path transform="translate(1152,1294)" d="m0 0 1 2-8 17-7 11-10 13-9 9-14 11-14 10-16 9-18 8-22 6-4-1 3-2 12-2 10-4 17-7 18-10 12-9 8-7 1-2h2l2-4 5-5 8-9 12-16 9-15z" fill="#FDFFFF"/>
<path transform="translate(908,668)" d="m0 0h6l-4 3-16 9-17 11-14 11-13 11-13 9-11 4h-8l4-2 9-4 6-4 11-9 5-4h2l1-3 4-2 5-5 9-6 16-9 9-3v-2z" fill="#FDFFFF"/>
<path transform="translate(1012,1821)" d="m0 0 8 1 15 5 19 10 23 15 17 11 2 2-2 2-9-1-1-3-5-1-2-3-7-4-8-6-12-7-5-5-8-4-3-3-17-5z" fill="#64BBF6"/>
<path transform="translate(1948,1019)" d="m0 0 1 4-4 11-7 12-9 11-41 41-1-3 7-8h2l2-4 7-9 5-5 4-5h2l2-4h2l2-5 4-2 2-4 4-6h2v-3l3-2 2-5 4-5h2l1-5z" fill="#79D4F5"/>
<path transform="translate(1080,1862)" d="m0 0 4 1 1 2 9 1 4-2h3l3 5v3h2l4 6v2l3 1 4 4-1 4-5-2-6-4-15-2-4-2 2-4-3-1v-5h-2v-2l-4-1z" fill="#4BABF2"/>
<path transform="translate(638,1736)" d="m0 0 7 1 12 7 10 9 7 7 10 13 13 21 11 20v2l-4-2-1-5h-2l-4-9-5-6-2-5-4-4-6-9-8-11-1-3-4 1-2-5-4-2v-2l-3-1-4-6-11-7-5-3z" fill="#35CFE9"/>
<path transform="translate(1397,136)" d="m0 0 13 2 12 5 9 7 7 8 11 18 8 18v2h-2l-2-3-2-6-4-6h-2l-4-5-2-6h-2l-6-9-1-3-5-5-4-5-8-3-4-5-11-2z" fill="#2EEEDE"/>
<path transform="translate(1189,1797)" d="m0 0h17l18 3 24 7 37 12 1 3-5 1-15-5-19-7-18-5-14-4-9-2h-14l-7 1-8 1-2-2z" fill="#64BBF6"/>
<path transform="translate(1521,712)" d="m0 0 2 1v3l2 1v7l2 7h2v2l2 1 4 4v3h2l4 5 6 7 2 3 3 1 5 8 3 2 1 3h2v3h2l4 6 1 3h2l2 6 3 1 1 3 4 2 1 3 2 3 1 4h-3l-14-19-12-15-9-11-14-15-7-8-6-9-1-4v-8z" fill="#FFB842"/>
<path transform="translate(1870,919)" d="m0 0 3 1-10 15-14 24-8 15-5 17v23l-2-2-2-10v-14l1-7 2-2 2-6 7-15h2l1-6 3-1 1-5 8-11 6-10z" fill="#77D4F4"/>
<path transform="translate(363,922)" d="m0 0 1 3-13 52-4 21-4 25-2-4 1-20 2-9 4-23 4-11 3-13 4-15z" fill="#FDFFFF"/>
<path transform="translate(792,1809)" d="m0 0h13l8 2 3 2h-24l-22 5-26 8-19 7h-2l1-3 13-6 1-2 3 1 13-6 27-7z" fill="#76D4F4"/>
<path transform="translate(868,540)" d="m0 0h6l-3 2-26 12-25 12-16 10-16 12-13 10-17 14-3 1 2-4 12-10 11-9h2v-2l4-1 2-4 10-6h2v-2h2v-2l4-1v-2l13-6 32-17z" fill="#FDFFFF"/>
<path transform="translate(1420,1022)" d="m0 0h3l2 5 1 10v7l1 5 1 17v10l-1 14-3 15h-2v-9l1-9v-26l-2-24-1-7z" fill="#FFB53E"/>
<path transform="translate(505,1754)" d="m0 0h15l4 2-37 4-14 1h-27l-20-3-3-2 11 1h21l44-2z" fill="#76D4F4"/>
<path transform="translate(1865,1115)" d="m0 0 2 2-19 19-7 8-13 14-9 13-5 11-2 3v-10h2l2-6 6-10 4-6 5-5 7-8 8-8h2v-2h2v-2l8-7z" fill="#77D4F4"/>
<path transform="translate(1748,547)" d="m0 0 1 4-2 18-2 28 1 26h2l3 13 6 11-1 2-6-7-6-15-1-10-1-2-1-13 1-6-1-2v-8l2-17v-6l2-4z" fill="#33CEE9"/>
<path transform="translate(895,1627)" d="m0 0 4 1 19 10 9 3 8 2 16 2h100l7 1v1h-117l-15-2-12-4-11-6-8-7z" fill="#FFD268"/>
<path transform="translate(1832,724)" d="m0 0 1 2-9 25-7 25-3 18-1 18-3-2v-18l2-13 2-10 7-23 4-8 4-11z" fill="#78D3F5"/>
<path transform="translate(1026,1829)" d="m0 0 1 2 4 1v2h10l9 6v2l5 2 13 8 6 5 4 2 1 4-4-1-9-5-2-1v-2l-6-2-4-3-3-1v-2l-5-1-3-1-1-2-9-4-8-4z" fill="#4AACF1"/>
<path transform="translate(1442,264)" d="m0 0h20v1l-26 4-24 2h-17l-13-1-1-3 52-2z" fill="#72D6F3"/>
<path transform="translate(288,1617)" d="m0 0h8l17 4 33 4 18 2 5 5-22-2-43-7-15-4z" fill="#73D7F2"/>
<path transform="translate(996,1833)" d="m0 0 13 1 9 2-4 1-7-1h-14l-14 3-16 7-21 12-14 9h-2l2-4 10-7 14-9 11-6 13-5 9-2z" fill="#78D3F5"/>
<path transform="translate(727,985)" d="m0 0 1 4v8l-4 4h-2v2l-6 5-10 5 2-9 3-9 3-1 3-3 5-1z" fill="#FFB63F"/>
<path transform="translate(554,1824)" d="m0 0 4 2 4 9 8 10 9 8 18 6 4 1h17l12-2 21-5 3 1-16 5-14 3-7 1h-20l-10-3-8-3-9-7-10-13-6-11z" fill="#2FCEE8"/>
<path transform="translate(1708,1154)" d="m0 0h1v9l-3 18-8 32-8 26-8 23-4 9-1-3 4-13 9-27 3-7 3-11 3-15 4-12 2-14 1-2z" fill="#FFD268"/>
<path transform="translate(591,1744)" d="m0 0h23l13 2 5 2v1l-16-1h-24l-25 2-17 2h-8l1-2 17-3z" fill="#75D5F4"/>
<path transform="translate(1208,684)" d="m0 0 4 4 3 7-1 9-5 10-7 7-8 4-13 2-2-2 21-7 2-4 3-3 3-9 1-12z" fill="#FDFFFF"/>
<path transform="translate(975,787)" d="m0 0 4 1-12 5-11 7-18 13-11 6-5 1 1-3 5-2h3l2-4 6-5 4-5 8-4 12-7 5-2z" fill="#FDFFFF"/>
<path transform="translate(1759,436)" d="m0 0h1l1 7v34l-3 34-2 15-2-3v-12l2-18 1-10v-16l1-2v-15z" fill="#77D4F4"/>
<path transform="translate(1618,763)" d="m0 0 5 5 10 13 9 14 15 28 2 7-4-4-6-11-6-9-3-5v-3l-3-1-10-19-2-4h-2l-5-9z" fill="#FED26A"/>
<path transform="translate(1744,652)" d="m0 0 3 1-1 2 5-2h2l-1 6 5 5h2v-2h2l1 3 2 1v2l6-2 5 5h-3l1 3h-2l2 4-5-2 1 3-4-2-12-11-9-11z" fill="#48C4EE"/>
<path transform="translate(726,1847)" d="m0 0 5 5 11 18 8 11 9 11 9 10 8 7h-3l-6-3v-2h-2l-3-5-8-7-2-4-5-4-3-5-3-3-3-5-4-5-2-5-5-9-2-4z" fill="#35CEE9"/>
<path transform="translate(1303,590)" d="m0 0 4 4 4 8v6l-6 9-7 7-11 5-10 2-6-1v-1l14-2 8-4 6-5 4-7 1-14z" fill="#FDFFFF"/>
<path transform="translate(1375,144)" d="m0 0h10l14 2 9 4 1 3-9-2-17-1-11 1v-2l-19 4-3-1 5-2 12-2 4-3z" fill="#2EE4E1"/>
<path transform="translate(1250,1886)" d="m0 0 3 2-1 4h-2l-2 6-4 1v3h-2l-1 3h-4v3h-3v2l-7 4h-3l1-3 15-16 6-7z" fill="#4CACF2"/>
<path transform="translate(1835,561)" d="m0 0 5 2 9 7 8 9 2 3 5 24v12l-1 2-1 9-3 3 1-12v-23l-4-11-2-4-3-5-6-5-4-5-6-5z" fill="#36CEE9"/>
<path transform="translate(1114,778)" d="m0 0 4 5 2 4v9l-6 12-7 7-8 4-5 1 4-4 5-3 9-11 2-6v-14l-1-3z" fill="#FDFFFF"/>
<path transform="translate(482,1411)" d="m0 0 3 3 3 7v8l-5 9-7 7-8 3-4-1 7-4h2v-2l5-5 3-7z" fill="#FDFFFF"/>
<path transform="translate(824,1801)" d="m0 0 6 1 11 6 10 7 11 9 15 15-2 1-8-6-13-13-12-7-1-2-8-3-5-3-4-4z" fill="#39CFEA"/>
<path transform="translate(1515,1332)" d="m0 0v3l-11 13-7 8-10 10-8 5-4 1h-8l-4-2 3-2h9l12-6v-2l8-7 12-13 4-5z" fill="#FED269"/>
<path transform="translate(1519,253)" d="m0 0h35l9 2v1h-38l-29 3-14 1v-2l10-2 14-2z" fill="#75D5F4"/>
<path transform="translate(378,1255)" d="m0 0 3 4 12 21 10 22-1 2-4-5v-2h-2l-8-15-7-14-3-9z" fill="#FDFFFF"/>
<path transform="translate(1411,1237)" d="m0 0 2 2-6 9-13 15-4 4h-3l4-8 3-2 3-8 3 1-1-3 5-5z" fill="#FFB741"/>
<path transform="translate(1750,544)" d="m0 0h1l-2 25-1 13-1 41h-1l-2-26 1-18 1-10 2-18z" fill="#70D6F2"/>
<path transform="translate(513,1752)" d="m0 0h9l1 3h-18l-6 1-47 2v-3l3-1h26v-1h22z" fill="#2CCDE8"/>
<path transform="translate(560,1339)" d="m0 0 2 3 1 4v8l-4 9-9 8-12 2 5-4 6-2v-2h2l2-4 3-2 3-8z" fill="#FDFFFF"/>
<path transform="translate(386,1631)" d="m0 0h12l28 2 24 3 11 4-4 1-18-3-37-4-16-2z" fill="#75D4F4"/>
<path transform="translate(386,1640)" d="m0 0h1l7 44 6 25-1 3-3-8v-4h-2l-2-10-2-6-1-7-3-27z" fill="#32EDDF"/>
<path transform="translate(1756,467)" d="m0 0h1l1 6v10l-4 40-2-1 1-32 2-22z" fill="#2CCEE8"/>
<path transform="translate(289,1485)" d="m0 0 13 3 8 4 10 4 2 4-11-2-24-10z" fill="#2FE6E0"/>
<path transform="translate(1350,879)" d="m0 0 1 3-1 8 3 10 5 6v2l3 1 4 6 8 11 4 5h-3l-12-14-9-12-5-10-1-6z" fill="#FFD066"/>
<path transform="translate(1748,547)" d="m0 0 1 4-2 18-2 28-2 1-2-4v-8l2-17v-6l2-4z" fill="#2CCEE8"/>
<path transform="translate(810,1921)" d="m0 0h8l1 3-2 2-14 3-13 1-10-3-2-1v-2l4-1 4 2 9 1 15-1z" fill="#4BC1F0"/>
<path transform="translate(1670,388)" d="m0 0 13 1 17 4 6 1 3 2 4 1-1 2-8-1-23-5-11-3z" fill="#44CFEC"/>
<path transform="translate(1424,1056)" d="m0 0h1l2 17 1 3-1 14-3 15h-2v-9l1-9z" fill="#FFAD34"/>
<path transform="translate(801,1805)" d="m0 0 9 1 3 2 6 2 3 3-6 1v-2l-11-2h-21l-1-3 5-1h12z" fill="#5CBDF4"/>
<path transform="translate(523,311)" d="m0 0 1 3-9 20-9 14-11 12-5 3 1-3 8-7 8-11 6-11 6-12z" fill="#FDFFFF"/>
<path transform="translate(315,1498)" d="m0 0 7 2 1-2 16 8 3 5 5 3 3 4-1 2-11-9-17-9-6-3z" fill="#2FEBDF"/>
<path transform="translate(1288,1097)" d="m0 0 2 2v5l-2 10-5 14-8 8 1-5 2-4h2l1-5h2l1-10 2-5v-6z" fill="#FF9B1B"/>
<path transform="translate(1572,1633)" d="m0 0h39v1l-39 3-14 1 1-2z" fill="#78D3F5"/>
<path transform="translate(876,1842)" d="m0 0 3 1 3 3 8 7 8 10-1 2-6-2-4-6-2-4-3-1-6-7z" fill="#60BBF5"/>
<path transform="translate(1285,969)" d="m0 0 5 3-2 1h-13l-7 1-1 4-1 5v4 3h-2l-1-2v-14l2-4 2 1 2-1z" fill="#FF9B1B"/>
<path transform="translate(1692,1227)" d="m0 0 1 3-9 27-6 14-1-3 4-13 8-24z" fill="#FED36C"/>
<path transform="translate(1821 1e3)" d="m0 0 3 3h3l2 4 3 12-1 2h-4l-2-8h-2v-7h-2z" fill="#4BABF2"/>
<path transform="translate(1218,456)" d="m0 0 5 1v2l7 3 4 3v2l6 2 10 6 4 4-5-2-24-13-6-3-3-4z" fill="#FFCD61"/>
<path transform="translate(1843,1048)" d="m0 0 2 3-1 4 4-1-1 4 4 2 2 7h-3-2-3l-3-9v-5l-2-1z" fill="#4DACF2"/>
<path transform="translate(1154,1062)" d="m0 0h2l1 5v68h-1l-1-54-1-9z" fill="#FFD268"/>
<path transform="translate(1637,382)" d="m0 0 12 1 3 2 8 2v1l-8 1-1-1-21-2-4 1 4-4z" fill="#2CCEE7"/>
<path transform="translate(1744,652)" d="m0 0 3 1-1 2 5-2h2l-1 6 10 10v2l-3 1-9-9-6-8z" fill="#5ABFF3"/>
<path transform="translate(1681,517)" d="m0 0 7 1 15 6 20 7 3 3-7-1-24-9-14-6z" fill="#74D5F4"/>
<path transform="translate(1595,1404)" d="m0 0v3l-10 11-9 11-7 7-5 3 1-4 8-7h2l2-5 6-7h2v-2l8-8z" fill="#FFD268"/>
<path transform="translate(1924,1040)" d="m0 0 2 1-5 11-5-1-5 6-7 5 2-4 9-9 6-7z" fill="#55B2F3"/>
<path transform="translate(1578,1227)" d="m0 0 1 3-14 29-3 5-1-3 6-13 8-16z" fill="#FFD268"/>
<path transform="translate(1860,595)" d="m0 0 2 1 2 10v12l-1 2-1 9-3 3 1-12z" fill="#2CCEE8"/>
<path transform="translate(1651,498)" d="m0 0 4 1 8 6 10 5 5 2v2l6 1 1 2h-6l-14-8-14-10z" fill="#3ACFEA"/>
<path transform="translate(358,494)" d="m0 0v3l-7 7-14 9-11 5-2-1 15-9 9-5z" fill="#FDFFFF"/>
<path transform="translate(1369,149)" d="m0 0h3v2l-24 6-10 3 1-3 11-4 12-3z" fill="#34ECDF"/>
<path transform="translate(492,1643)" d="m0 0 4 2 9 11 9 16 2 6-4-4-3-6-6-10v-2h-2l-2-5h-2l-3-5z" fill="#31EDDE"/>
<path transform="translate(1508,884)" d="m0 0h3l3 6v4l2 1 5 9 5 8-1 3-3-3-10-19-4-7z" fill="#FFB842"/>
<path transform="translate(1120,1616)" d="m0 0h2l-2 5-9 10-10 8-4 1 1-3 8-6h2v-2l5-2 2-4z" fill="#FDFFFF"/>
<path transform="translate(1715,398)" d="m0 0 4 1 8 4 8 5 2 1v2h-5l-8-5-9-4z" fill="#33CEE9"/>
<path transform="translate(263,1604)" d="m0 0 20 9 9 3-4 2-10-3-11-6-4-3z" fill="#35ECE0"/>
<path transform="translate(346,1144)" d="m0 0h1l5 26 1 8-4-5-3-16z" fill="#FDFFFF"/>
<path transform="translate(1803,698)" d="m0 0 7 2 5 6 3 2-1 3-16-10v-2z" fill="#64BCF5"/>
<path transform="translate(1572,381)" d="m0 0 26 1 12 2 1 2-17-1-22-3z" fill="#74D5F3"/>
<path transform="translate(1019,1826)" d="m0 0 9 1 7 3 3 4-4 1-3-1-1-2h-3l-3 1-2-1v-4z" fill="#43C4ED"/>
<path transform="translate(1880,913)" d="m0 0h4v2l3 1 7 8 3 3 1 4h-2l-16-16z" fill="#64BBF6"/>
<path transform="translate(1800,799)" d="m0 0 3 3 1 9v9h3l-1 2h-3l-1-5h-2z" fill="#4BAEF1"/>
<path transform="translate(259,1476)" d="m0 0 10 1 10 4 9 3-1 2-6-2-9-1-7-2-1-2-5-2z" fill="#2DECDE"/>
<path transform="translate(1272,1138)" d="m0 0 1 3-6 7 1 10 1 3-4-2-2-7 1-6 1-3 5-3h2z" fill="#FF9B1B"/>
<path transform="translate(764,414)" d="m0 0h2l-2 5-14 7-3-3z" fill="#FFD268"/>
<path transform="translate(829,1817)" d="m0 0 5 2 5 3 7 5 3 1 5 5-1 3-20-15-4-2z" fill="#64BEF5"/>
<path transform="translate(1618,1374)" d="m0 0v3l-12 16-9 11v-3l3-5h2l2-4 5-8h2l2-5h2l2-4z" fill="#FFD268"/>
<path transform="translate(1918,1188)" d="m0 0 4 1 1 3-2 13-2 2-1-7z" fill="#4CABF2"/>
<path transform="translate(1403,1168)" d="m0 0 2 3-5 9h-2l-2 9-2 3-4 1 2-5z" fill="#FFBA45"/>
<path transform="translate(1755,540)" d="m0 0 9 1 10 4-1 3-11-3-9-3z" fill="#5FC0F4"/>
<path transform="translate(1069,1019)" d="m0 0 3 1v16l-1 11h-1l-2-15z" fill="#FFC04E"/>
<path transform="translate(1e3 1821)" d="m0 0h8l7 4-2 2-2-1-1 2-7-2-2-1v-2l-2-1z" fill="#43C5ED"/>
<path transform="translate(718,1050)" d="m0 0h1l-1 33h-1l-2-18z" fill="#FDFFFF"/>
<path transform="translate(1784,550)" d="m0 0 5 1 23 11 1 2-9-3-17-7z" fill="#61C0F4"/>
<path transform="translate(1242,541)" d="m0 0 5 2 17 12 2 4h-2l-5-5-5-2-8-7z" fill="#FFC95B"/>
<path transform="translate(1123,1253)" d="m0 0 2 4v14l-2 5-2-4v-6l1-2z" fill="#FF9B1B"/>
<path transform="translate(1277,154)" d="m0 0 7 1 1 4-1 3h-3l-1 3-4-8z" fill="#2CD4E6"/>
<path transform="translate(1256,990)" d="m0 0 3 4 4 5 3 6 1 3 4 2 2 5-7-6-7-10-3-6z" fill="#FFD065"/>
<path transform="translate(353,1178)" d="m0 0 2 4 4 16-1 4-5-12-1-11z" fill="#FDFFFF"/>
<path transform="translate(415,813)" d="m0 0 1 2-11 17-4 6-1-3 6-9 1-3h2l2-5z" fill="#FDFFFF"/>
<path transform="translate(1753,646)" d="m0 0 7 5 6 8h-6l-5-7z" fill="#4FC1F0"/>
<path transform="translate(1336,477)" d="m0 0 4 2 12 11 7 6-2 1-2-1v-2h-2v-2l-4-2-9-7z" fill="#FFD268"/>
<path transform="translate(1205,441)" d="m0 0 6 1 12 7 6 4-1 3v-2l-6-2-9-6-8-4z" fill="#FF9B1B"/>
<path transform="translate(1750,544)" d="m0 0h1l-2 25h-2v-13z" fill="#72D5F3"/>
<path transform="translate(810,1921)" d="m0 0h8l1 3-2 2-7 2h-5l4-1z" fill="#54BEF2"/>
<path transform="translate(1859,584)" d="m0 0 3 4 3 10v9l-2-1-3-16z" fill="#77D4F4"/>
<path transform="translate(1670,388)" d="m0 0 13 1 9 3-3 1h-8l-11-3z" fill="#31CFE8"/>
<path transform="translate(956,1930)" d="m0 0 6 2 4 2 3 3-1 2-6-2-6-5z" fill="#43C5ED"/>
<path transform="translate(534,1760)" d="m0 0 4 4v5l3 1v2h-3l-2 3-3-1-1-4 4-1-2-5z" fill="#40C7EC"/>
<path transform="translate(367,1226)" d="m0 0 2 4 7 19-1 2-3-4-2-6-3-8-1-4z" fill="#FDFFFF"/>
<path transform="translate(1084,1008)" d="m0 0 5 4 9 13-1 3-11-14z" fill="#FFD065"/>
<path transform="translate(1555,1273)" d="m0 0 1 2-12 19-3 3 3-9h2l2-5z" fill="#FED36B"/>
<path transform="translate(1709,526)" d="m0 0 10 2 10 4 4 5-7-2v-2l-6-2-11-4z" fill="#33CFE9"/>
<path transform="translate(1540,954)" d="m0 0 3 1v5h2l1 6 1 8-2-1-5-17z" fill="#FFB63F"/>
<path transform="translate(1521,712)" d="m0 0 2 1v3l2 1v7l-5-1v-8z" fill="#FFB63F"/>
<path transform="translate(357,1533)" d="m0 0 3 1 2 9 2 7-3 1-4-15z" fill="#31EBDF"/>
<path transform="translate(1284,1120)" d="m0 0 1 3-2 5-8 8 1-5 2-4h2l1-5z" fill="#FF9B1B"/>
<path transform="translate(289,1485)" d="m0 0 13 3 1 2h-6l-3 1-7-3z" fill="#31E9E0"/>
<path transform="translate(1685,517)" d="m0 0 7 1 15 6 2 2-9-2-15-6z" fill="#2CCEE8"/>
<path transform="translate(1423,1087)" d="m0 0 3 3-2 15h-2v-9z" fill="#FFB741"/>
<path transform="translate(393,1691)" d="m0 0h2l5 18-1 3-3-8v-4h-2z" fill="#31EDDF"/>
<path transform="translate(1538,1300)" d="m0 0v3l-9 13-4 4 2-5 6-9z" fill="#FED36B"/>
<path transform="translate(1368,146)" d="m0 0m-3 0 3 2-7 2-9 2-6 1 3-3z" fill="#2EEFDE"/>
<path transform="translate(699,1802)" d="m0 0 3 1 6 11v2l-4-2-1-5h-2l-2-6z" fill="#3BCEEA"/>
<path transform="translate(1852,881)" d="m0 0 4 1 4 5-1 2-4 1-1-5-3-1z" fill="#4BABF2"/>
<path transform="translate(1637,382)" d="m0 0h2v2l3 1-1 1h-11l-4 1 4-4z" fill="#31CBE9"/>
<path transform="translate(254,1432)" d="m0 0 4 4-2 7h-3v-6l-2-1 3-2z" fill="#2ECEE8"/>
<path transform="translate(1832,724)" d="m0 0 1 2-5 13-2-1 1-6 3-6z" fill="#76D4F4"/>
<path transform="translate(1e3 1939)" d="m0 0h8l-1 2h-2v3h-6l-2-1 1-3z" fill="#49C5EE"/>
<path transform="translate(1305,1831)" d="m0 0 5 1 11 4-4 1-12-3z" fill="#64BBF6"/>
<path transform="translate(784,1806)" d="m0 0 12 1-4 3h-8l-1-3z" fill="#62B9F6"/>
<path transform="translate(1517,900)" d="m0 0h2l4 7 3 5-1 3-3-3-5-10z" fill="#FFB43C"/>
<path transform="translate(733,1823)" d="m0 0h5l-3 3-11 5-1 3h-2l-1-3 12-6z" fill="#2ECEE8"/>
<path transform="translate(757,1912)" d="m0 0 4 2 8 6-4 1-8-7z" fill="#3CCFEA"/>
<path transform="translate(1154,1062)" d="m0 0h2l1 5v9h-2l-1-4z" fill="#FFC555"/>
<path transform="translate(1587,805)" d="m0 0 5 5 4 7v2h-2l-8-11z" fill="#FFB843"/>
<path transform="translate(1639,485)" d="m0 0 3 1 4 5 3-1 1 4-4 1-7-8z" fill="#33CEE9"/>
<path transform="translate(1467,769)" d="m0 0 9 1 1 3-5 1-5-3z" fill="#FFB139"/>
<path transform="translate(554,1824)" d="m0 0 4 2 4 9v2h-2l-6-11z" fill="#33CEE9"/>
<path transform="translate(1753,663)" d="m0 0 5 2 4 4v2l-3 1-4-5z" fill="#60BFF4"/>
<path transform="translate(743,1878)" d="m0 0 4 3v3l3 1v2l3 1 1 4-2-1v-2l-4-1-3-4z" fill="#62B9F6"/>
<path transform="translate(801,1805)" d="m0 0h2l1 2 3 2h-14l4-3z" fill="#55BDF2"/>
<path transform="translate(1848,1432)" d="m0 0 2 1-8 7-5 3-3-1 10-7z" fill="#50F1E3"/>
<path transform="translate(1288,1097)" d="m0 0 2 2v5l-1 4-3-1v-6z" fill="#FFA022"/>
<path transform="translate(1483,778)" d="m0 0 3 1 3 3 2 6-3-1v-2l-5-2z" fill="#FFA92E"/>
<path transform="translate(1681,517)" d="m0 0 7 1 9 4 1 2-5-1-12-5z" fill="#7BD3F6"/>
<path transform="translate(1239,180)" d="m0 0 4 1v2l-3 3-5-1 1-4z" fill="#2DEDDE"/>
<path transform="translate(295,1489)" d="m0 0h6l6 4-4 1-6-2v-2z" fill="#31D2E7"/>
<path transform="translate(1447,1336)" d="m0 0h1v9l-2 1-2 4v-7z" fill="#FFBE4B"/>
<path transform="translate(865,1891)" d="m0 0 1 2 4-1-2 4-5 1v-2l-3-1z" fill="#45C5ED"/>
<path transform="translate(627,1746)" d="m0 0 11 1 2 4-8-1v-2l-5-1z" fill="#34CFE9"/>
<path transform="translate(1145,1171)" d="m0 0h2l2 7-2 4-3-5z" fill="#FF9B1B"/>
<path transform="translate(1289,1165)" d="m0 0 2 2-10 4-4-1z" fill="#FF9B1B"/>
<path transform="translate(1270,1160)" d="m0 0 2 1v4l4 2 1 3-5-2-3-5z" fill="#FF9B1B"/>
<path transform="translate(979,1059)" d="m0 0h1v8l-3 6-2 1 2-9z" fill="#FDFFFF"/>
<path transform="translate(821,1929)" d="m0 0h2v2l-11 3-4-1z" fill="#3DF0E0"/>
<path transform="translate(829,1817)" d="m0 0 5 2 5 3 2 4-12-7z" fill="#60C0F4"/>
<path transform="translate(1282,958)" d="m0 0 8 1 2 2 1 4-4-2-7-4z" fill="#FFD066"/>
<path transform="translate(1750,541)" d="m0 0h2l-2 5-3 7-2-3 1-5z" fill="#60BAF5"/>
<path transform="translate(1229,532)" d="m0 0 11 6 2 3-5-2-8-5z" fill="#FFD268"/>
</svg>
